<svg width="343" height="342" viewBox="0 0 343 342" fill="none" xmlns="http://www.w3.org/2000/svg">
<rect width="343" height="342" rx="100" fill="#C0DAA0"/>
<path d="M152.965 243.108L149.512 242.535L148.837 246.608H152.965V243.108ZM159.789 201.956V198.456H156.822L156.336 201.384L159.789 201.956ZM167.759 201.956L171.212 202.529L171.888 198.456H167.759V201.956ZM160.935 243.108V246.608H163.903L164.388 243.68L160.935 243.108ZM161.922 194.133L159.44 196.602L159.464 196.625L159.487 196.648L161.922 194.133ZM160.615 190.757L164.11 190.948L164.11 190.945L160.615 190.757ZM162.268 187.382L164.611 189.982L164.623 189.971L164.636 189.959L162.268 187.382ZM169.359 187.382L166.878 189.85L166.889 189.862L166.901 189.874L169.359 187.382ZM170.692 190.757L174.186 190.948L174.188 190.923L174.189 190.898L170.692 190.757ZM169.039 194.133L171.404 196.713L171.406 196.711L169.039 194.133ZM183.654 218.674L180.209 218.056L180.204 218.082L180.199 218.109L183.654 218.674ZM179.655 243.108V246.608H182.629L183.109 243.673L179.655 243.108ZM171.685 243.108L168.232 242.535L167.556 246.608H171.685V243.108ZM178.509 201.956V198.456H175.541L175.056 201.384L178.509 201.956ZM186.159 201.956L189.611 202.533L190.293 198.456H186.159V201.956ZM185.04 208.654L181.588 208.077L180.906 212.154H185.04V208.654ZM185.546 208.654V212.154H187.544L188.56 210.434L185.546 208.654ZM190.851 203.403L192.612 206.427L192.62 206.423L190.851 203.403ZM205.832 203.189L203.975 206.155L203.992 206.166L204.008 206.176L205.832 203.189ZM209.857 208.386L206.543 209.511L206.547 209.522L206.551 209.534L209.857 208.386ZM210.23 216.933L213.683 217.509L213.684 217.501L213.685 217.493L210.23 216.933ZM205.859 243.108V246.608H208.823L209.311 243.684L205.859 243.108ZM197.888 243.108L194.436 242.534L193.759 246.608H197.888V243.108ZM202.073 217.897L205.526 218.47L205.528 218.462L205.529 218.453L202.073 217.897ZM200.9 210.904L198.078 212.974L198.09 212.991L198.103 213.007L200.9 210.904ZM189.811 209.565L188.226 206.445L188.219 206.448L188.211 206.452L189.811 209.565ZM185.839 213.101L182.969 211.099L182.964 211.105L185.839 213.101ZM223.879 241.232L221.839 244.077L221.846 244.082L221.853 244.086L223.879 241.232ZM218.574 233.704L215.232 234.744L215.232 234.744L218.574 233.704ZM218.094 222.719L221.548 223.285L221.549 223.278L218.094 222.719ZM222.226 211.655L219.294 209.742L219.292 209.746L222.226 211.655ZM230.09 204.126L228.356 201.086L228.348 201.09L230.09 204.126ZM248.643 203.162L247.032 206.269L247.042 206.274L247.051 206.279L248.643 203.162ZM255.227 215.245V218.745H258.531L258.721 215.447L255.227 215.245ZM247.47 215.245L243.977 215.47L244.188 218.745H247.47V215.245ZM245.337 210.261L247.899 207.876L247.899 207.876L245.337 210.261ZM233.475 209.94L235.324 212.912L235.334 212.905L235.344 212.899L233.475 209.94ZM228.757 214.923L231.762 216.717L231.769 216.706L228.757 214.923ZM226.144 222.532L229.597 223.104L229.6 223.091L229.602 223.077L226.144 222.532ZM226.224 230.301L222.831 231.159L222.831 231.159L226.224 230.301ZM229.263 235.365L231.468 232.647L231.468 232.647L229.263 235.365ZM239.1 236.329L240.458 239.555L240.468 239.551L240.479 239.546L239.1 236.329ZM242.618 233.891L240.116 231.444L240.106 231.455L240.095 231.466L242.618 233.891ZM245.018 230.087V226.587H242.611L241.75 228.834L245.018 230.087ZM252.801 230.087L256.165 231.053L257.448 226.587H252.801V230.087ZM248.963 237.214L246.308 234.933L246.302 234.94L246.296 234.946L248.963 237.214ZM271.108 218.674L267.663 218.056L267.658 218.082L267.654 218.109L271.108 218.674ZM267.109 243.108V246.608H270.083L270.563 243.673L267.109 243.108ZM259.139 243.108L255.686 242.537L255.013 246.608H259.139V243.108ZM268.202 188.239V184.739H265.233L264.749 187.669L268.202 188.239ZM276.066 188.239L279.52 188.807L280.189 184.739H276.066V188.239ZM272.707 208.654L269.254 208.086L268.584 212.154H272.707V208.654ZM273.214 208.654V212.154H275.228L276.24 210.412L273.214 208.654ZM278.438 203.376L280.213 206.393L280.221 206.388L278.438 203.376ZM293.606 203.162L291.782 206.149L291.789 206.153L291.795 206.156L293.606 203.162ZM297.658 208.359L294.344 209.484L294.349 209.5L294.354 209.515L297.658 208.359ZM298.031 216.933L301.483 217.509L301.485 217.498L301.487 217.488L298.031 216.933ZM293.66 243.108V246.608H296.623L297.112 243.684L293.66 243.108ZM285.689 243.108L282.236 242.538L281.565 246.608H285.689V243.108ZM289.848 217.897L293.301 218.467L293.301 218.466L289.848 217.897ZM288.675 210.878L285.891 212.999L285.896 213.006L285.902 213.014L288.675 210.878ZM277.399 209.565L275.841 206.431L275.834 206.434L275.827 206.438L277.399 209.565ZM273.347 213.101L276.191 215.141L276.197 215.134L276.202 215.126L273.347 213.101ZM304.269 243.108L300.816 242.535L300.141 246.608H304.269V243.108ZM311.093 201.956V198.456H308.126L307.64 201.384L311.093 201.956ZM319.063 201.956L322.516 202.529L323.192 198.456H319.063V201.956ZM312.239 243.108V246.608H315.207L315.692 243.68L312.239 243.108ZM313.226 194.133L310.745 196.602L310.768 196.625L310.792 196.648L313.226 194.133ZM311.919 190.757L315.414 190.948L315.414 190.945L311.919 190.757ZM313.572 187.382L315.915 189.982L315.927 189.971L315.94 189.959L313.572 187.382ZM320.663 187.382L318.182 189.85L318.194 189.862L318.205 189.874L320.663 187.382ZM321.996 190.757L325.491 190.948L325.492 190.923L325.493 190.898L321.996 190.757ZM320.343 194.133L322.708 196.713L322.71 196.711L320.343 194.133ZM104.564 127.731L102.645 124.804L102.645 124.804L104.564 127.731ZM118.705 137.404L115.665 135.671L115.665 135.671L118.705 137.404ZM117.812 138.972L120.614 141.068L120.745 140.894L120.852 140.705L117.812 138.972ZM110.07 147.793L107.628 145.286L107.628 145.286L110.07 147.793ZM94.1541 199.128L95.0052 202.523L95.0052 202.523L94.1541 199.128ZM112.32 198.747L111.469 202.142L111.469 202.142L112.32 198.747ZM114.212 199.221L115.063 195.826L115.063 195.826L114.212 199.221ZM117.692 200.624L119.433 197.587L119.433 197.587L117.692 200.624ZM118.212 200.921L116.472 203.958L116.472 203.958L118.212 200.921ZM116.367 228.869L114.356 226.004L114.356 226.004L116.367 228.869ZM114.285 230.331L115.988 233.388L116.147 233.3L116.296 233.195L114.285 230.331ZM103.289 235.297L104.457 238.596L104.457 238.596L103.289 235.297ZM99.0019 236.814L99.7372 240.236L99.9573 240.189L100.17 240.114L99.0019 236.814ZM82.5435 240.351L81.8082 236.929L81.7771 236.935L81.7461 236.943L82.5435 240.351ZM64.9095 244.476L64.1121 241.069L64.0058 241.093L63.9012 241.125L64.9095 244.476ZM51.7696 248.429L50.7614 245.078L50.7614 245.078L51.7696 248.429ZM28.8628 263.263L31.507 265.556L31.507 265.556L28.8628 263.263ZM43.1178 251.965L41.4903 248.866L41.4903 248.866L43.1178 251.965ZM122.106 221.982L125.286 223.445L125.286 223.445L122.106 221.982ZM121.512 203.843L118.709 205.939L118.709 205.939L121.512 203.843ZM119.311 127.082L116.397 129.02L116.397 129.02L119.311 127.082ZM125.453 122.469L122.459 124.282L122.467 124.294L122.475 124.307L125.453 122.469ZM96.0983 174.683L93.4405 172.406L93.4405 172.406L96.0983 174.683ZM119.221 182.786L118.047 186.083L118.047 186.083L119.221 182.786ZM120.753 183.331L121.927 180.034L121.927 180.034L120.753 183.331ZM118.726 245.942L117.893 242.543L117.893 242.543L118.726 245.942ZM110.847 247.873L111.68 251.273L111.68 251.273L110.847 247.873ZM26.6203 266.367L29.0985 268.839L29.0985 268.839L26.6203 266.367ZM47.2801 252.981L48.5217 256.254L48.5217 256.254L47.2801 252.981ZM137.845 230.428L134.692 228.907L134.692 228.907L137.845 230.428ZM137.37 197.872L134.26 199.477L134.26 199.477L137.37 197.872ZM45.7737 228.96C43.8407 228.96 42.2737 230.527 42.2737 232.46C42.2737 234.393 43.8407 235.96 45.7737 235.96V228.96ZM51.184 232.147C52.045 230.416 51.34 228.315 49.6093 227.454C47.8787 226.593 45.7777 227.298 44.9167 229.029L51.184 232.147ZM46.3394 227.145C44.8979 228.433 44.7733 230.646 46.0611 232.087C47.3489 233.529 49.5615 233.654 51.003 232.366L46.3394 227.145ZM51.3618 227.779L54.1002 229.959L51.3618 227.779ZM53.8454 224.867L56.5838 227.047L56.5838 227.047L53.8454 224.867ZM56.0186 221.643L58.2117 224.371L58.2117 224.371L56.0186 221.643ZM56.7429 219.979L60.2192 220.386L60.2192 220.386L56.7429 219.979ZM58.8586 215.033L61.597 217.213L61.597 217.213L58.8586 215.033ZM60.1004 211.497L62.8388 213.676L62.8388 213.676L60.1004 211.497ZM60.5719 209.682L57.5087 207.989L57.5087 207.989L60.5719 209.682ZM66.452 203.754C66.452 201.821 64.885 200.254 62.952 200.254C61.019 200.254 59.452 201.821 59.452 203.754H66.452ZM59.2451 203.962C59.2451 205.895 60.8121 207.462 62.7451 207.462C64.6781 207.462 66.2451 205.895 66.2451 203.962H59.2451ZM63.366 201.004L59.8682 200.879L59.8682 200.879L63.366 201.004ZM63.826 199.432L66.5644 201.612L66.5644 201.612L63.826 199.432ZM64.7688 196.427L68.126 197.417L68.126 197.417L64.7688 196.427ZM65.4357 192.614L68.9343 192.713L68.9343 192.713L65.4357 192.614ZM66.2636 190.233L69.7582 190.426L69.7582 190.426L66.2636 190.233ZM66.2636 185.241L62.7696 185.036L62.7696 185.036L66.2636 185.241ZM66.8845 182.121L63.4057 181.736L63.4057 181.736L66.8845 182.121ZM70.7984 175.256C70.7984 173.323 69.2314 171.756 67.2984 171.756C65.3654 171.756 63.7984 173.323 63.7984 175.256H70.7984ZM70.7984 171.512C70.7984 169.579 69.2314 168.012 67.2984 168.012C65.3654 168.012 63.7984 169.579 63.7984 171.512H70.7984ZM63.7984 175.048C63.7984 176.981 65.3654 178.548 67.2984 178.548C69.2314 178.548 70.7984 176.981 70.7984 175.048H63.7984ZM63.3844 170.68C63.3844 172.613 64.9514 174.18 66.8844 174.18C68.8174 174.18 70.3844 172.613 70.3844 170.68H63.3844ZM67.4593 167.144L64.2584 165.728L64.2584 165.728L67.4593 167.144ZM66.7809 160.799L69.8441 159.106L69.8441 159.106L66.7809 160.799ZM66.7235 159.239L63.5225 157.824L63.5225 157.824L66.7235 159.239ZM66.1025 158.153L63.9094 160.881L63.9094 160.881L66.1025 158.153ZM66.0566 155.703L62.5619 155.51L62.5619 155.51L66.0566 155.703ZM67.9008 145.926C67.9008 143.993 66.3338 142.426 64.4008 142.426C62.4678 142.426 60.9008 143.993 60.9008 145.926H67.9008ZM60.0729 147.175C60.0729 149.107 61.6399 150.675 63.5729 150.675C65.5059 150.675 67.0729 149.107 67.0729 147.175H60.0729ZM63.2625 144.886L61.0693 147.614L61.0693 147.614L63.2625 144.886ZM62.906 143.638L66.0396 142.079L66.0396 142.079L62.906 143.638ZM62.3426 142.494L65.7601 141.739L65.7601 141.739L62.3426 142.494ZM61.1008 137.282L57.7342 138.239L57.7342 138.239L61.1008 137.282ZM60.3074 135.11L57.2108 136.741L57.2108 136.741L60.3074 135.11ZM59.8015 132.66L62.5399 130.48L62.5399 130.48L59.8015 132.66ZM59.6865 130.164L62.4249 132.343L62.4249 132.343L59.6865 130.164ZM60.2614 125.033L63.304 126.763L63.304 126.763L60.2614 125.033ZM61.3078 122.953L57.9411 121.995L61.3078 122.953ZM63.044 121.069L65.8119 123.211L65.8119 123.211L63.044 121.069ZM64.7112 119.509L62.5181 116.781L62.5181 116.781L64.7112 119.509ZM66.137 118.896L66.6718 122.355L66.6718 122.355L66.137 118.896ZM67.2983 118.099L65.5171 115.086L65.5171 115.086L67.2983 118.099ZM68.5861 115.811L65.9788 113.476L65.9788 113.476L68.5861 115.811ZM69.529 113.846L67.0479 111.378L67.0479 111.378L69.529 113.846ZM73.4889 111.812C73.4889 109.879 71.9219 108.312 69.9889 108.312C68.0559 108.312 66.4889 109.879 66.4889 111.812H73.4889ZM66.2821 112.02C66.2821 113.953 67.8491 115.52 69.7821 115.52C71.715 115.52 73.2821 113.953 73.2821 112.02H66.2821ZM69.5636 100.695L72.9302 99.7381L69.5636 100.695ZM72.6611 97.4594C72.6611 95.5264 71.0941 93.9594 69.1611 93.9594C67.2281 93.9594 65.6611 95.5264 65.6611 97.4594H72.6611ZM65.0402 97.2514C65.0402 99.1844 66.6072 100.751 68.5402 100.751C70.4732 100.751 72.0402 99.1844 72.0402 97.2514H65.0402ZM68.0342 84.9786L71.3626 83.896L71.3626 83.896L68.0342 84.9786ZM67.7123 83.199L70.882 84.6831L70.882 84.6831L67.7123 83.199ZM73.282 80.1943C73.282 78.2613 71.715 76.6943 69.782 76.6943C67.849 76.6943 66.282 78.2613 66.282 80.1943H73.282ZM66.489 80.1944C66.489 82.1274 68.056 83.6944 69.989 83.6944C71.922 83.6944 73.489 82.1274 73.489 80.1944H66.489ZM71.0238 76.2421L68.341 73.9943L68.341 73.9943L71.0238 76.2421ZM76.566 72.4517L74.2181 69.856L74.2181 69.856L76.566 72.4517ZM80.2914 71.4116L82.4845 74.1393L82.4845 74.1393L80.2914 71.4116ZM85.6726 73.5842L88.411 71.4045L88.411 71.4045L85.6726 73.5842ZM84.2698 75.6643L85.6973 78.86L85.6973 78.86L84.2698 75.6643ZM76.8189 77.0742L77.2074 80.5526L77.2074 80.5526L76.8189 77.0742ZM74.0823 78.9001L76.6897 81.2349L76.6897 81.2349L74.0823 78.9001ZM72.3116 92.0973L75.6208 90.9576L75.6208 90.9576L72.3116 92.0973ZM70.9468 96.0129C69.114 96.6269 68.1259 98.6105 68.7399 100.443C69.354 102.276 71.3376 103.264 73.1705 102.65L70.9468 96.0129ZM72.288 95.8588C70.3701 95.6179 68.6199 96.9773 68.379 98.8953C68.138 100.813 69.4975 102.563 71.4154 102.804L72.288 95.8588ZM72.4611 99.8631L75.8277 98.9061L75.8277 98.9061L72.4611 99.8631ZM73.197 100.383L72.4341 103.799L72.4341 103.799L73.197 100.383ZM76.451 106.566L73.9699 109.034L73.9699 109.034L76.451 106.566ZM78.3712 110.876L75.308 112.569L75.308 112.569L78.3712 110.876ZM79.3026 112.54L82.041 110.361L82.041 110.361L79.3026 112.54ZM80.6364 114.724L78.8933 117.76L78.8933 117.76L80.6364 114.724ZM88.7081 117.429L90.4512 114.394L90.4512 114.394L88.7081 117.429ZM88.5102 127.129C88.9275 129.016 90.7958 130.208 92.6832 129.791C94.5707 129.373 95.7624 127.505 95.3451 125.618L88.5102 127.129ZM95.2206 126.581C95.2206 124.648 93.6536 123.081 91.7206 123.081C89.7876 123.081 88.2206 124.648 88.2206 126.581H95.2206ZM92.0885 127.876L94.5696 125.407L94.5696 125.407L92.0885 127.876ZM92.1345 129.285L95.6292 129.479L92.1345 129.285ZM92.33 132.51L95.7475 133.265L95.7475 133.265L92.33 132.51ZM92.537 135.433L95.9036 134.476L95.9036 134.476L92.537 135.433ZM92.7554 138.854H89.2554V139.047L89.2766 139.239L92.7554 138.854ZM93.4799 139.998L90.4167 141.691L90.4167 141.691L93.4799 139.998ZM93.6293 141.35L96.8303 139.935L96.8303 139.935L93.6293 141.35ZM93.3879 144.158L96.8053 144.914L96.8053 144.914L93.3879 144.158ZM92.3875 153.461L89.0304 152.471L89.0304 152.471L92.3875 153.461ZM93.4619 158.412C91.856 157.336 89.682 157.765 88.606 159.371C87.53 160.977 87.9596 163.151 89.5654 164.227L93.4619 158.412ZM94.9965 161.874C95.1879 159.95 93.7837 158.236 91.8602 158.045C89.9367 157.853 88.2223 159.257 88.0309 161.181L94.9965 161.874ZM91.4677 169.178L94.2061 171.357L94.2061 171.357L91.4677 169.178ZM90.9388 174.424L87.7378 173.009L87.7378 173.009L90.9388 174.424ZM90.2719 178.584L86.9498 177.483L86.8412 177.81L86.7987 178.153L90.2719 178.584ZM88.6622 181.705L85.4612 180.289L88.6622 181.705ZM88.0413 183.785L84.8753 182.293L84.8753 182.293L88.0413 183.785ZM87.3744 185.865L90.869 186.058L90.869 186.058L87.3744 185.865ZM86.1326 190.857L89.6088 191.264L89.6088 191.264L86.1326 190.857ZM85.5116 192.313L82.017 192.12L85.5116 192.313ZM85.3047 194.185L87.7858 196.654L88.8047 195.63V194.185H85.3047ZM84.0628 195.803L86.9451 197.789L86.9451 197.789L84.0628 195.803ZM83.8098 196.843L86.6453 198.895L86.6453 198.895L83.8098 196.843ZM82.9245 198.97L80.7313 196.242L80.7313 196.242L82.9245 198.97ZM80.9583 202.818L84.1592 204.233L84.1592 204.233L80.9583 202.818ZM79.2565 206.874L82.3902 208.433L82.3902 208.433L79.2565 206.874ZM78.2677 208.85L81.4687 210.266L81.4687 210.266L78.2677 208.85ZM77.2328 210.826L77.6213 214.305L80.7328 213.957V210.826H77.2328ZM74.9562 212.907L77.5067 215.303L77.5067 215.303L74.9562 212.907ZM73.7144 214.686L76.757 216.416L76.757 216.416L73.7144 214.686ZM71.6907 217.275L68.6275 215.582L68.6275 215.582L71.6907 217.275ZM70.0809 219.667L67.313 217.525L67.313 217.525L70.0809 219.667ZM67.9193 222.175L70.9619 223.905L70.9619 223.905L67.9193 222.175ZM66.1025 224.139L63.1304 222.291L63.1304 222.291L66.1025 224.139ZM59.5635 224.981C57.7307 225.595 56.7426 227.578 57.3567 229.411C57.9707 231.244 59.9543 232.232 61.7872 231.618L59.5635 224.981ZM60.8569 231.778C62.778 231.563 64.1614 229.832 63.9469 227.911C63.7323 225.99 62.0011 224.607 60.08 224.821L60.8569 231.778ZM59.2267 229.178L60.7982 232.305L60.7982 232.305L59.2267 229.178ZM57.5594 230.079L60.2225 232.35L60.2225 232.35L57.5594 230.079ZM44.5028 233.397C43.6418 235.128 44.3468 237.229 46.0775 238.09C47.8082 238.951 49.9091 238.246 50.7701 236.515L44.5028 233.397ZM48.3125 235.07C49.754 233.782 49.8786 231.569 48.5908 230.128C47.3029 228.686 45.0904 228.562 43.6488 229.85L48.3125 235.07ZM43.704 234.748L43.4974 231.254L43.704 234.748ZM49.5451 233.754L51.7383 236.482L51.7383 236.482L49.5451 233.754ZM50.9939 233.338L48.646 230.742L48.646 230.742L50.9939 233.338ZM54.3449 235.367C55.9507 234.291 56.3803 232.117 55.3043 230.512C54.2284 228.906 52.0543 228.476 50.4485 229.552L54.3449 235.367ZM156.418 243.68L163.242 202.529L156.336 201.384L149.512 242.535L156.418 243.68ZM159.789 205.456H167.759V198.456H159.789V205.456ZM164.307 201.384L157.482 242.535L164.388 243.68L171.212 202.529L164.307 201.384ZM160.935 239.608H152.965V246.608H160.935V239.608ZM165.44 192.026C164.924 192.026 164.636 191.889 164.356 191.618L159.487 196.648C161.127 198.235 163.184 199.026 165.44 199.026V192.026ZM164.403 191.664C164.142 191.402 164.094 191.236 164.11 190.948L157.121 190.567C156.994 192.886 157.817 194.97 159.44 196.602L164.403 191.664ZM164.11 190.945C164.129 190.597 164.231 190.324 164.611 189.982L159.925 184.781C158.243 186.297 157.244 188.274 157.12 190.569L164.11 190.945ZM164.636 189.959C165.037 189.591 165.397 189.462 165.867 189.462V182.462C163.6 182.462 161.561 183.279 159.901 184.804L164.636 189.959ZM165.867 189.462C166.361 189.462 166.62 189.591 166.878 189.85L171.84 184.913C170.214 183.279 168.145 182.462 165.867 182.462V189.462ZM166.901 189.874C167.141 190.11 167.208 190.28 167.195 190.616L174.189 190.898C174.282 188.592 173.46 186.51 171.816 184.889L166.901 189.874ZM167.197 190.567C167.179 190.889 167.082 191.178 166.671 191.555L171.406 196.711C173.057 195.195 174.062 193.234 174.186 190.948L167.197 190.567ZM166.674 191.553C166.312 191.885 165.959 192.026 165.44 192.026V199.026C167.694 199.026 169.74 198.239 171.404 196.713L166.674 191.553ZM180.199 218.109L176.201 242.542L183.109 243.673L187.108 219.239L180.199 218.109ZM179.655 239.608H171.685V246.608H179.655V239.608ZM175.137 243.68L181.962 202.529L175.056 201.384L168.232 242.535L175.137 243.68ZM178.509 205.456H186.159V198.456H178.509V205.456ZM182.707 201.379L181.588 208.077L188.492 209.231L189.611 202.533L182.707 201.379ZM185.04 212.154H185.546V205.154H185.04V212.154ZM188.56 210.434C189.548 208.76 190.882 207.435 192.612 206.427L189.09 200.378C186.342 201.978 184.139 204.154 182.532 206.874L188.56 210.434ZM192.62 206.423C194.252 205.467 196.285 204.92 198.848 204.92V197.92C195.262 197.92 191.963 198.695 189.082 200.383L192.62 206.423ZM198.848 204.92C201.125 204.92 202.771 205.402 203.975 206.155L207.689 200.222C205.125 198.618 202.115 197.92 198.848 197.92V204.92ZM204.008 206.176C205.144 206.869 205.998 207.906 206.543 209.511L213.172 207.261C212.152 204.258 210.323 201.83 207.656 200.201L204.008 206.176ZM206.551 209.534C207.098 211.111 207.269 213.33 206.776 216.372L213.685 217.493C214.293 213.748 214.216 210.269 213.164 207.238L206.551 209.534ZM206.778 216.356L202.406 242.531L209.311 243.684L213.683 217.509L206.778 216.356ZM205.859 239.608H197.888V246.608H205.859V239.608ZM201.341 243.681L205.526 218.47L198.621 217.324L194.436 242.534L201.341 243.681ZM205.529 218.453C206.093 214.947 205.743 211.522 203.698 208.802L198.103 213.007C198.582 213.645 199.014 214.881 198.618 217.341L205.529 218.453ZM203.723 208.835C201.633 205.984 198.431 204.859 194.956 204.859V211.859C196.919 211.859 197.68 212.431 198.078 212.974L203.723 208.835ZM194.956 204.859C192.581 204.859 190.319 205.381 188.226 206.445L191.397 212.685C192.467 212.142 193.635 211.859 194.956 211.859V204.859ZM188.211 206.452C186.101 207.537 184.354 209.114 182.969 211.099L188.71 215.104C189.493 213.981 190.394 213.201 191.411 212.678L188.211 206.452ZM182.964 211.105C181.563 213.124 180.672 215.472 180.209 218.056L187.099 219.292C187.417 217.518 187.983 216.151 188.715 215.097L182.964 211.105ZM233.662 240.438C230.205 240.438 227.708 239.659 225.905 238.378L221.853 244.086C225.132 246.414 229.157 247.438 233.662 247.438V240.438ZM225.918 238.388C224.041 237.042 222.702 235.188 221.916 232.664L215.232 234.744C216.437 238.614 218.634 241.779 221.839 244.077L225.918 238.388ZM221.916 232.664C221.117 230.099 220.939 227.004 221.548 223.285L214.64 222.154C213.898 226.686 214.04 230.915 215.232 234.744L221.916 232.664ZM221.549 223.278C222.155 219.526 223.375 216.308 225.16 213.563L219.292 209.746C216.919 213.395 215.383 217.554 214.639 222.161L221.549 223.278ZM225.157 213.567C226.97 210.787 229.194 208.675 231.831 207.162L228.348 201.09C224.695 203.185 221.676 206.092 219.294 209.742L225.157 213.567ZM231.824 207.167C234.427 205.682 237.334 204.92 240.619 204.92V197.92C236.192 197.92 232.079 198.963 228.356 201.086L231.824 207.167ZM240.619 204.92C243.297 204.92 245.393 205.419 247.032 206.269L250.254 200.055C247.414 198.582 244.161 197.92 240.619 197.92V204.92ZM247.051 206.279C248.712 207.127 249.881 208.26 250.677 209.689L256.791 206.28C255.278 203.565 253.052 201.483 250.234 200.044L247.051 206.279ZM250.677 209.689C251.457 211.087 251.861 212.824 251.733 215.043L258.721 215.447C258.913 212.128 258.322 209.025 256.791 206.28L250.677 209.689ZM255.227 211.745H247.47V218.745H255.227V211.745ZM250.963 215.019C250.787 212.298 249.756 209.87 247.899 207.876L242.776 212.647C243.514 213.439 243.904 214.333 243.977 215.47L250.963 215.019ZM247.899 207.876C245.743 205.561 242.77 204.672 239.606 204.672V211.672C241.489 211.672 242.337 212.175 242.776 212.647L247.899 207.876ZM239.606 204.672C236.728 204.672 234.035 205.446 231.606 206.981L235.344 212.899C236.647 212.076 238.042 211.672 239.606 211.672V204.672ZM231.626 206.968C229.218 208.466 227.27 210.565 225.745 213.14L231.769 216.706C232.803 214.959 234 213.736 235.324 212.912L231.626 206.968ZM225.752 213.129C224.204 215.721 223.206 218.697 222.687 221.987L229.602 223.077C230.007 220.508 230.75 218.412 231.762 216.717L225.752 213.129ZM222.692 221.959C222.141 225.277 222.128 228.379 222.831 231.159L229.618 229.444C229.219 227.866 229.152 225.788 229.597 223.104L222.692 221.959ZM222.831 231.159C223.532 233.932 224.895 236.328 227.058 238.083L231.468 232.647C230.682 232.009 230.019 231.029 229.618 229.444L222.831 231.159ZM227.058 238.083C229.264 239.873 231.942 240.66 234.835 240.66V233.66C233.248 233.66 232.213 233.251 231.468 232.647L227.058 238.083ZM234.835 240.66C236.796 240.66 238.683 240.302 240.458 239.555L237.742 233.104C236.886 233.464 235.93 233.66 234.835 233.66V240.66ZM240.479 239.546C242.246 238.789 243.807 237.706 245.142 236.317L240.095 231.466C239.404 232.185 238.619 232.727 237.72 233.113L240.479 239.546ZM245.12 236.339C246.51 234.918 247.559 233.234 248.285 231.341L241.75 228.834C241.339 229.905 240.788 230.757 240.116 231.444L245.12 236.339ZM245.018 233.587H252.801V226.587H245.018V233.587ZM249.437 229.121C248.811 231.301 247.773 233.227 246.308 234.933L251.618 239.494C253.743 237.02 255.263 234.196 256.165 231.053L249.437 229.121ZM246.296 234.946C244.862 236.633 243.092 237.972 240.939 238.965L243.871 245.321C246.907 243.921 249.509 241.974 251.629 239.481L246.296 234.946ZM240.939 238.965C238.861 239.923 236.457 240.438 233.662 240.438V247.438C237.335 247.438 240.76 246.756 243.871 245.321L240.939 238.965ZM267.654 218.109L263.655 242.542L270.563 243.673L274.562 219.239L267.654 218.109ZM267.109 239.608H259.139V246.608H267.109V239.608ZM262.592 243.678L271.655 188.809L264.749 187.669L255.686 242.537L262.592 243.678ZM268.202 191.739H276.066V184.739H268.202V191.739ZM272.612 187.671L269.254 208.086L276.161 209.222L279.52 188.807L272.612 187.671ZM272.707 212.154H273.214V205.154H272.707V212.154ZM276.24 210.412C277.241 208.69 278.555 207.368 280.213 206.393L276.664 200.359C273.95 201.956 271.781 204.153 270.188 206.896L276.24 210.412ZM280.221 206.388C281.765 205.474 283.816 204.92 286.542 204.92V197.92C282.871 197.92 279.519 198.67 276.656 200.364L280.221 206.388ZM286.542 204.92C288.872 204.92 290.556 205.4 291.782 206.149L295.43 200.175C292.853 198.601 289.828 197.92 286.542 197.92V204.92ZM291.795 206.156C292.947 206.853 293.803 207.89 294.344 209.484L300.972 207.234C299.95 204.221 298.104 201.792 295.418 200.167L291.795 206.156ZM294.354 209.515C294.897 211.066 295.072 213.289 294.576 216.377L301.487 217.488C302.093 213.718 302.019 210.225 300.962 207.204L294.354 209.515ZM294.579 216.356L290.207 242.531L297.112 243.684L301.483 217.509L294.579 216.356ZM293.66 239.608H285.689V246.608H293.66V239.608ZM289.142 243.677L293.301 218.467L286.394 217.327L282.236 242.538L289.142 243.677ZM293.301 218.466C293.883 214.934 293.547 211.467 291.447 208.742L285.902 213.014C286.362 213.611 286.807 214.823 286.394 217.328L293.301 218.466ZM291.458 208.756C289.333 205.967 286.144 204.859 282.677 204.859V211.859C284.648 211.859 285.457 212.43 285.891 212.999L291.458 208.756ZM282.677 204.859C280.264 204.859 277.968 205.374 275.841 206.431L278.957 212.699C280.064 212.149 281.287 211.859 282.677 211.859V204.859ZM275.827 206.438C273.684 207.515 271.903 209.087 270.492 211.077L276.202 215.126C276.995 214.008 277.915 213.222 278.97 212.692L275.827 206.438ZM270.503 211.061C269.05 213.087 268.13 215.451 267.663 218.056L274.553 219.292C274.867 217.539 275.441 216.188 276.191 215.141L270.503 211.061ZM307.722 243.68L314.546 202.529L307.64 201.384L300.816 242.535L307.722 243.68ZM311.093 205.456H319.063V198.456H311.093V205.456ZM315.611 201.384L308.786 242.535L315.692 243.68L322.516 202.529L315.611 201.384ZM312.239 239.608H304.269V246.608H312.239V239.608ZM316.744 192.026C316.228 192.026 315.94 191.889 315.66 191.618L310.792 196.648C312.431 198.235 314.488 199.026 316.744 199.026V192.026ZM315.707 191.664C315.446 191.402 315.399 191.236 315.414 190.948L308.425 190.567C308.298 192.886 309.121 194.97 310.745 196.602L315.707 191.664ZM315.414 190.945C315.433 190.597 315.535 190.324 315.915 189.982L311.229 184.781C309.547 186.297 308.548 188.274 308.424 190.569L315.414 190.945ZM315.94 189.959C316.341 189.591 316.701 189.462 317.171 189.462V182.462C314.904 182.462 312.865 183.279 311.205 184.804L315.94 189.959ZM317.171 189.462C317.665 189.462 317.924 189.591 318.182 189.85L323.144 184.913C321.518 183.279 319.449 182.462 317.171 182.462V189.462ZM318.205 189.874C318.445 190.11 318.512 190.28 318.499 190.616L325.493 190.898C325.586 188.592 324.764 186.51 323.12 184.889L318.205 189.874ZM318.501 190.567C318.483 190.889 318.386 191.178 317.976 191.555L322.71 196.711C324.361 195.195 325.366 193.234 325.491 190.948L318.501 190.567ZM317.978 191.553C317.616 191.885 317.263 192.026 316.744 192.026V199.026C318.998 199.026 321.044 198.239 322.708 196.713L317.978 191.553ZM95.6307 137.773L106.483 130.658L102.645 124.804L91.7927 131.919L95.6307 137.773ZM114.285 128.326H115.112V121.326H114.285V128.326ZM116.663 129.903V131.899H123.663V129.903H116.663ZM115.665 135.671L114.771 137.239L120.852 140.705L121.746 139.136L115.665 135.671ZM107.628 145.286L91.2695 161.22L96.1539 166.234L112.512 150.3L107.628 145.286ZM83.3945 205.434L95.0052 202.523L93.3031 195.733L81.6924 198.644L83.3945 205.434ZM103.998 201.413H105.567V194.413H103.998V201.413ZM111.469 202.142L113.361 202.616L115.063 195.826L113.171 195.352L111.469 202.142ZM115.952 203.66L116.472 203.958L119.952 197.885L119.433 197.587L115.952 203.66ZM114.356 226.004L112.274 227.466L116.296 233.195L118.378 231.734L114.356 226.004ZM102.122 231.997L97.8342 233.515L100.17 240.114L104.457 238.596L102.122 231.997ZM98.2666 233.392L81.8082 236.929L83.2788 243.773L99.7372 240.236L98.2666 233.392ZM81.7461 236.943L64.1121 241.069L65.7068 247.884L83.3409 243.759L81.7461 236.943ZM63.9012 241.125L50.7614 245.078L52.7778 251.781L65.9177 247.828L63.9012 241.125ZM26.2185 260.97L20.5314 267.528L25.8198 272.114L31.507 265.556L26.2185 260.97ZM41.4903 248.866C35.6935 251.911 30.5144 256.016 26.2185 260.97L31.507 265.556C35.2324 261.26 39.7222 257.702 44.7453 255.064L41.4903 248.866ZM112.581 227.273C109.232 229.139 105.733 230.719 102.122 231.997L104.457 238.596C108.439 237.187 112.296 235.445 115.988 233.388L112.581 227.273ZM118.927 220.518C117.912 222.723 116.334 224.616 114.356 226.004L118.378 231.734C121.372 229.632 123.755 226.772 125.286 223.445L118.927 220.518ZM113.361 202.616C114.268 202.843 115.14 203.195 115.952 203.66L119.433 197.587C118.063 196.802 116.593 196.21 115.063 195.826L113.361 202.616ZM95.0052 202.523C97.9467 201.786 100.967 201.413 103.998 201.413V194.413C100.393 194.413 96.801 194.857 93.3031 195.733L95.0052 202.523ZM118.709 205.939C119.669 207.222 120.19 208.787 120.19 210.397H127.19C127.19 207.278 126.182 204.243 124.315 201.746L118.709 205.939ZM116.397 129.02C116.57 129.28 116.663 129.587 116.663 129.903H123.663C123.663 128.21 123.163 126.555 122.226 125.145L116.397 129.02ZM115.009 136.876C112.77 139.869 110.303 142.68 107.628 145.286L112.512 150.3C115.449 147.44 118.157 144.353 120.614 141.068L115.009 136.876ZM116.472 203.958C117.343 204.457 118.105 205.131 118.709 205.939L124.315 201.746C123.139 200.175 121.655 198.86 119.952 197.885L116.472 203.958ZM115.112 128.326C115.622 128.326 116.106 128.582 116.397 129.02L122.226 125.145C120.643 122.763 117.975 121.326 115.112 121.326V128.326ZM120.19 214.753C120.19 216.745 119.759 218.712 118.927 220.518L125.286 223.445C126.54 220.72 127.19 217.754 127.19 214.753H120.19ZM116.663 131.899C116.663 133.223 116.318 134.524 115.665 135.671L121.746 139.136C123.003 136.932 123.663 134.437 123.663 131.899H116.663ZM105.567 201.413C107.557 201.413 109.538 201.658 111.469 202.142L113.171 195.352C110.684 194.728 108.131 194.413 105.567 194.413V201.413ZM50.7614 245.078C47.5579 246.041 44.4535 247.31 41.4903 248.866L44.7453 255.064C47.313 253.715 50.0027 252.616 52.7779 251.781L50.7614 245.078ZM106.483 130.658C108.805 129.136 111.516 128.326 114.285 128.326V121.326C110.15 121.326 106.105 122.535 102.645 124.804L106.483 130.658ZM95.8415 125.246C100.882 121.381 104.607 118.539 107.586 116.629C110.644 114.669 112.366 114.069 113.453 114.031C114.203 114.005 115.083 114.225 116.557 115.769C118.137 117.423 119.94 120.121 122.459 124.282L128.447 120.656C125.97 116.565 123.805 113.221 121.619 110.934C119.328 108.536 116.645 106.914 113.207 107.035C110.105 107.144 107.015 108.681 103.808 110.736C100.524 112.842 96.534 115.894 91.582 119.691L95.8415 125.246ZM122.475 124.307C124.101 126.941 124.257 130.218 122.914 134.341C121.557 138.505 118.792 143.104 115.247 147.83C111.728 152.523 107.59 157.147 103.656 161.374C99.7937 165.523 95.9956 169.424 93.4405 172.406L98.7561 176.961C101.189 174.122 104.731 170.492 108.779 166.143C112.756 161.871 117.099 157.028 120.848 152.03C124.572 147.064 127.863 141.746 129.569 136.509C131.289 131.23 131.513 125.623 128.431 120.63L122.475 124.307ZM101.325 184.32H107.838V177.32H101.325V184.32ZM118.047 186.083L119.58 186.629L121.927 180.034L120.394 179.488L118.047 186.083ZM137.236 211.746V217.778H144.236V211.746H137.236ZM117.893 242.543L110.014 244.474L111.68 251.273L119.559 249.341L117.893 242.543ZM24.142 263.896L19.5217 268.529L24.4783 273.471L29.0985 268.839L24.142 263.896ZM46.0386 249.709C37.8213 252.827 30.3579 257.663 24.142 263.896L29.0985 268.839C34.6143 263.308 41.235 259.018 48.5217 256.254L46.0386 249.709ZM67.944 245.692C60.4605 245.692 53.039 247.053 46.0386 249.709L48.5217 256.254C54.7294 253.898 61.3095 252.692 67.944 252.692V245.692ZM110.014 244.474C106.713 245.283 103.328 245.692 99.931 245.692V252.692C103.89 252.692 107.834 252.215 111.68 251.273L110.014 244.474ZM134.692 228.907C131.391 235.748 125.229 240.744 117.893 242.543L119.559 249.341C128.934 247.044 136.792 240.663 140.997 231.949L134.692 228.907ZM137.236 217.778C137.236 221.634 136.366 225.439 134.692 228.907L140.997 231.949C143.129 227.531 144.236 222.686 144.236 217.778H137.236ZM134.26 199.477C136.215 203.267 137.236 207.475 137.236 211.746H144.236C144.236 206.359 142.948 201.051 140.481 196.268L134.26 199.477ZM119.58 186.629C125.914 188.882 131.163 193.473 134.26 199.477L140.481 196.268C136.572 188.691 129.941 182.885 121.927 180.034L119.58 186.629ZM107.838 184.32C111.315 184.32 114.768 184.916 118.047 186.083L120.394 179.488C116.362 178.054 112.115 177.32 107.838 177.32V184.32ZM93.4405 172.406C92.349 173.68 91.4617 175.224 91.3209 176.99C91.1676 178.914 91.9421 180.551 93.1401 181.711C95.2311 183.736 98.5336 184.32 101.325 184.32V177.32C100.306 177.32 99.4654 177.204 98.8469 177.032C98.1922 176.849 97.9895 176.663 98.0099 176.683C98.0372 176.709 98.1315 176.812 98.2083 177.001C98.2891 177.199 98.3107 177.397 98.2988 177.546C98.2785 177.801 98.1963 177.614 98.7561 176.961L93.4405 172.406ZM45.7737 235.96C46.8724 235.96 47.7317 235.511 48.1156 235.29C48.5964 235.014 49.0207 234.685 49.3586 234.389C49.9442 233.876 50.7335 233.052 51.184 232.147L44.9167 229.029C44.9812 228.899 45.0312 228.83 45.0318 228.829C45.0381 228.82 45.0283 228.835 44.9981 228.87C44.9351 228.944 44.8431 229.038 44.7446 229.125C44.6371 229.219 44.5929 229.241 44.6313 229.219C44.6532 229.206 44.7439 229.155 44.8963 229.102C45.036 229.053 45.3458 228.96 45.7737 228.96V235.96ZM51.003 232.366C51.1202 232.261 51.1838 232.233 51.8252 231.858C52.3929 231.527 53.295 230.971 54.1002 229.959L48.6234 225.6C48.6222 225.601 48.6223 225.601 48.6221 225.601C48.6216 225.602 48.6152 225.608 48.5983 225.621C48.5574 225.653 48.4819 225.704 48.2937 225.814C48.0123 225.979 47.1243 226.444 46.3394 227.145L51.003 232.366ZM54.1002 229.959C54.4392 229.533 54.7974 229.127 55.2246 228.643C55.6346 228.179 56.1125 227.639 56.5838 227.047L51.107 222.688C50.7651 223.117 50.4051 223.526 49.9785 224.009C49.5691 224.472 49.0922 225.011 48.6234 225.6L54.1002 229.959ZM56.5838 227.047C56.9318 226.61 57.2041 226.164 57.4037 225.817C57.5708 225.527 57.8188 225.068 57.9174 224.891C58.2538 224.289 58.3275 224.278 58.2117 224.371L53.8254 218.915C52.7704 219.764 52.1343 220.891 51.8074 221.475C51.3464 222.3 51.2501 222.508 51.107 222.688L56.5838 227.047ZM58.2117 224.371C58.6409 224.026 58.9028 223.653 58.9966 223.516C59.1256 223.329 59.228 223.151 59.3014 223.015C59.4499 222.74 59.5794 222.454 59.6811 222.211C59.7855 221.962 59.8857 221.697 59.9686 221.447C60.0224 221.284 60.1645 220.853 60.2192 220.386L53.2667 219.572C53.2804 219.455 53.2976 219.368 53.3063 219.326C53.3161 219.28 53.3242 219.249 53.3276 219.236C53.334 219.212 53.3344 219.213 53.3239 219.245C53.3031 219.308 53.2672 219.405 53.2235 219.509C53.2027 219.559 53.1835 219.603 53.1674 219.637C53.1505 219.673 53.1423 219.688 53.1439 219.685C53.1451 219.683 53.1517 219.671 53.1638 219.651C53.1753 219.632 53.1976 219.595 53.2305 219.547C53.2617 219.502 53.3175 219.424 53.3977 219.33C53.4711 219.244 53.6137 219.086 53.8254 218.915L58.2117 224.371ZM60.2192 220.386C60.1398 221.065 59.7252 221.586 60.0047 221.162C60.1021 221.013 60.3378 220.654 60.5282 220.177C60.7345 219.659 60.8639 219.071 60.8639 218.419H53.8639C53.8639 218.128 53.9246 217.839 54.0259 217.585C54.1111 217.371 54.2052 217.241 54.1564 217.315C54.143 217.335 54.1353 217.347 54.109 217.386C54.0878 217.418 54.0573 217.464 54.024 217.516C53.9578 217.62 53.862 217.775 53.7637 217.964C53.5545 218.367 53.3447 218.905 53.2667 219.572L60.2192 220.386ZM60.8639 218.419C60.8639 218.638 60.8344 218.774 60.8323 218.783C60.8275 218.807 60.83 218.789 60.8512 218.724C60.8946 218.59 60.9734 218.389 61.0867 218.146C61.1973 217.908 61.3195 217.674 61.4311 217.481C61.5558 217.266 61.6172 217.187 61.597 217.213L56.1202 212.853C55.6078 213.497 55.0979 214.422 54.7384 215.196C54.5442 215.614 54.3487 216.084 54.1946 216.558C54.0643 216.959 53.8639 217.653 53.8639 218.419H60.8639ZM61.597 217.213C62.6409 215.901 62.8547 214.347 62.9417 213.86C63.0078 213.491 63.0303 213.384 63.0508 213.316C63.0616 213.28 63.0166 213.453 62.8388 213.676L57.362 209.317C56.8028 210.02 56.5127 210.748 56.3455 211.306C56.1878 211.832 56.0991 212.359 56.0512 212.627C55.9101 213.415 55.8845 213.149 56.1202 212.853L61.597 217.213ZM62.8388 213.676C63.3481 213.037 63.5687 212.38 63.6757 211.953C63.7783 211.543 63.8177 211.159 63.8343 211.007C63.8595 210.775 63.8599 210.78 63.8574 210.793C63.8507 210.828 63.8047 211.069 63.635 211.376L57.5087 207.989C57.1872 208.571 57.0505 209.12 56.9821 209.477C56.9179 209.813 56.8857 210.154 56.8751 210.252C56.8559 210.428 56.8565 210.368 56.885 210.254C56.9179 210.122 57.0293 209.735 57.362 209.317L62.8388 213.676ZM63.635 211.376C63.9623 210.783 64.1797 210.109 64.3097 209.617C64.4384 209.129 64.5893 208.414 64.5893 207.706H57.5893C57.5893 207.635 57.5934 207.592 57.594 207.586C57.5949 207.577 57.5944 207.584 57.5905 207.608C57.5821 207.659 57.5661 207.737 57.5417 207.829C57.5174 207.921 57.4923 207.999 57.4731 208.052C57.4639 208.077 57.4596 208.087 57.4615 208.082C57.4625 208.08 57.4773 208.046 57.5087 207.989L63.635 211.376ZM64.5893 207.706C64.5893 208.088 64.4609 208.342 64.4364 208.386C64.4298 208.398 64.4429 208.373 64.5028 208.291C64.568 208.202 64.6409 208.109 64.7716 207.943C65.1479 207.465 66.452 205.953 66.452 203.754H59.452C59.452 203.204 59.8247 202.91 59.2696 203.616C59.0866 203.848 58.6609 204.371 58.3243 204.974C57.9505 205.644 57.5893 206.566 57.5893 207.706H64.5893ZM66.2451 203.962C66.2451 204.029 66.2195 204.025 66.3776 203.527C66.4957 203.155 66.8252 202.215 66.8638 201.128L59.8682 200.879C59.8698 200.834 59.8889 200.833 59.7058 201.409C59.5627 201.86 59.2451 202.815 59.2451 203.962H66.2451ZM66.8638 201.128C66.8608 201.212 66.8544 201.263 66.8535 201.27C66.852 201.283 66.8521 201.279 66.8554 201.261C66.8625 201.222 66.8751 201.164 66.8909 201.106C66.9082 201.043 66.9164 201.026 66.9054 201.054C66.8993 201.069 66.8778 201.121 66.8373 201.198C66.8021 201.265 66.7154 201.422 66.5644 201.612L61.0876 197.252C60.7123 197.724 60.5052 198.208 60.4124 198.438C60.2957 198.728 60.2058 199.015 60.1386 199.261C60.0212 199.69 59.8886 200.305 59.8682 200.879L66.8638 201.128ZM66.5644 201.612C67.3782 200.589 67.68 199.405 67.8205 198.808C67.8989 198.476 67.9699 198.115 68.0145 197.899C68.0685 197.638 68.1009 197.502 68.126 197.417L61.4117 195.438C61.2979 195.823 61.2166 196.206 61.1597 196.481C61.0934 196.801 61.0562 196.994 61.0071 197.203C60.9612 197.398 60.9311 197.487 60.9197 197.516C60.9074 197.548 60.948 197.428 61.0876 197.252L66.5644 201.612ZM68.126 197.417C68.574 195.897 68.8814 194.574 68.9343 192.713L61.9371 192.514C61.9075 193.555 61.7637 194.243 61.4117 195.438L68.126 197.417ZM68.9343 192.713C68.9255 193.022 68.8513 193.222 68.8399 193.252C68.8365 193.261 68.8468 193.232 68.9574 193.015C69.037 192.86 69.221 192.508 69.3729 192.125C69.5335 191.719 69.7191 191.134 69.7582 190.426L62.7689 190.04C62.7852 189.746 62.8589 189.562 62.8636 189.55C62.8671 189.541 62.862 189.555 62.8375 189.606C62.8107 189.661 62.7804 189.72 62.7253 189.828C62.6377 189.999 62.451 190.359 62.2973 190.763C62.1356 191.188 61.9577 191.79 61.9371 192.514L68.9343 192.713ZM69.7582 190.426C69.7949 189.763 69.7636 188.849 69.7636 188.569H62.7636C62.7636 189.393 62.7931 189.602 62.7689 190.04L69.7582 190.426ZM69.7636 188.569C69.7636 187.178 69.7002 186.427 69.7576 185.445L62.7696 185.036C62.6981 186.257 62.7636 187.754 62.7636 188.569H69.7636ZM69.7576 185.445C69.7635 185.345 69.8009 185.135 69.9471 184.554C70.0591 184.109 70.2749 183.305 70.3633 182.505L63.4057 181.736C63.3819 181.951 63.3155 182.224 63.1592 182.844C63.0372 183.328 62.8203 184.17 62.7696 185.036L69.7576 185.445ZM70.3633 182.505C70.6247 180.141 70.7984 177.792 70.7984 175.256H63.7984C63.7984 177.463 63.648 179.544 63.4057 181.736L70.3633 182.505ZM63.7984 171.512V175.048H70.7984V171.512H63.7984ZM70.3844 170.68C70.3844 170.351 70.4147 169.862 70.4847 169.379C70.5189 169.143 70.5583 168.938 70.5983 168.776C70.641 168.602 70.669 168.54 70.6603 168.559L64.2584 165.728C63.8645 166.619 63.6659 167.623 63.5569 168.376C63.4402 169.183 63.3844 170.007 63.3844 170.68H70.3844ZM70.6603 168.559C71.3207 167.066 71.0873 165.575 70.9901 164.973C70.9492 164.72 70.8413 164.151 70.83 164.086C70.7892 163.852 70.7984 163.838 70.7984 163.92H63.7984C63.7984 164.471 63.8797 164.977 63.9341 165.289C63.963 165.455 63.9958 165.626 64.0192 165.751C64.045 165.888 64.0643 165.994 64.0798 166.09C64.1127 166.294 64.1098 166.346 64.1102 166.319C64.1108 166.284 64.1171 166.048 64.2584 165.728L70.6603 168.559ZM70.7984 163.92C70.7984 163.384 70.7866 162.636 70.6865 161.858C70.5911 161.118 70.3857 160.086 69.8441 159.106L63.7178 162.493C63.6704 162.407 63.6689 162.376 63.6857 162.437C63.7017 162.495 63.7238 162.597 63.7438 162.752C63.7854 163.075 63.7984 163.464 63.7984 163.92H70.7984ZM69.8441 159.106C69.9675 159.329 70.0307 159.511 70.0593 159.602C70.0909 159.703 70.1064 159.776 70.1133 159.812C70.1208 159.851 70.1237 159.876 70.1246 159.885C70.1257 159.895 70.1259 159.9 70.1259 159.901C70.1259 159.902 70.1261 159.905 70.1258 159.914C70.1255 159.922 70.1246 159.944 70.1205 159.98C70.1166 160.014 70.1075 160.083 70.0855 160.178C70.0656 160.264 70.0206 160.437 69.9244 160.655L63.5225 157.824C63.1088 158.759 63.1156 159.742 63.1305 160.154C63.1413 160.453 63.1728 160.786 63.2372 161.124C63.2907 161.404 63.4116 161.939 63.7178 162.493L69.8441 159.106ZM69.9244 160.655C70.1454 160.155 70.3992 159.366 70.2868 158.414C70.1628 157.363 69.6538 156.592 69.1668 156.098C68.768 155.694 68.3361 155.437 68.2665 155.393C68.0876 155.282 68.1944 155.344 68.2957 155.425L63.9094 160.881C64.2093 161.122 64.5313 161.314 64.5537 161.328C64.6853 161.41 64.4409 161.275 64.1858 161.017C63.8424 160.669 63.4332 160.066 63.335 159.234C63.2484 158.499 63.4539 157.979 63.5225 157.824L69.9244 160.655ZM68.2957 155.425C68.4582 155.556 68.8443 155.936 69.0328 156.609C69.2126 157.252 69.0932 157.751 69.0598 157.874C69.0436 157.933 69.0335 157.954 69.0583 157.888C69.0704 157.856 69.083 157.823 69.1059 157.764C69.126 157.712 69.1542 157.64 69.1832 157.561C69.2887 157.276 69.509 156.66 69.5512 155.896L62.5619 155.51C62.5796 155.189 62.6671 155 62.6187 155.131C62.5623 155.283 62.6035 155.166 62.508 155.42C62.4561 155.557 62.3752 155.779 62.3047 156.038C62.1625 156.561 62.0006 157.455 62.2915 158.495C62.591 159.566 63.2417 160.344 63.9094 160.881L68.2957 155.425ZM69.5512 155.896C69.6084 154.861 69.3404 153.905 68.8058 153.1C68.3836 152.463 67.8218 152.006 67.7772 151.967C67.6141 151.823 67.8217 151.979 68.0033 152.276C68.2375 152.659 68.3147 153.048 68.3147 153.311H61.3147C61.3147 154.262 61.5552 155.15 62.0323 155.929C62.4567 156.623 62.9867 157.075 63.1421 157.212C63.2603 157.317 63.2467 157.305 63.2336 157.292C63.2036 157.263 63.0938 157.152 62.9732 156.97C62.8441 156.776 62.7213 156.528 62.6427 156.237C62.565 155.95 62.5515 155.698 62.5619 155.51L69.5512 155.896ZM68.3147 153.311C68.3147 151.897 68.1969 150.524 68.0954 149.321C67.9899 148.071 67.9008 146.993 67.9008 145.926H60.9008C60.9008 147.336 61.0187 148.708 61.1202 149.91C61.2256 151.16 61.3147 152.241 61.3147 153.311H68.3147ZM67.0729 147.175C67.0729 147.191 67.0724 147.177 67.0764 147.109C67.0807 147.037 67.0859 146.968 67.0948 146.841C67.1096 146.63 67.1344 146.272 67.1278 145.887C67.1214 145.515 67.0852 144.945 66.8978 144.326C66.7034 143.683 66.298 142.836 65.4556 142.159L61.0693 147.614C60.5077 147.162 60.2815 146.63 60.198 146.354C60.1214 146.101 60.1278 145.949 60.1288 146.008C60.1296 146.055 60.1267 146.141 60.1119 146.352C60.106 146.436 60.096 146.572 60.0888 146.694C60.0813 146.82 60.0729 146.99 60.0729 147.175H67.0729ZM65.4556 142.159C65.7202 142.371 65.9077 142.588 66.0338 142.757C66.1606 142.928 66.2484 143.08 66.3062 143.192C66.4166 143.406 66.4708 143.574 66.4899 143.636C66.5019 143.675 66.5097 143.704 66.5139 143.721C66.5182 143.737 66.5203 143.747 66.5204 143.748C66.5205 143.748 66.5195 143.743 66.5171 143.731C66.5147 143.719 66.5116 143.703 66.5075 143.68C66.5034 143.658 66.4989 143.633 66.4933 143.601C66.4881 143.572 66.4813 143.534 66.4746 143.497C66.4613 143.423 66.4424 143.32 66.4192 143.21C66.3966 143.103 66.3624 142.952 66.3134 142.785C66.2883 142.699 66.2556 142.596 66.2139 142.483C66.1726 142.372 66.116 142.233 66.0396 142.079L59.7724 145.197C59.6632 144.978 59.6113 144.806 59.5951 144.751C59.5752 144.683 59.5674 144.643 59.5697 144.654C59.5822 144.713 59.5825 144.726 59.6221 144.942C59.6463 145.074 59.702 145.378 59.7998 145.696C59.8503 145.859 59.939 146.119 60.0882 146.407C60.2234 146.669 60.5167 147.17 61.0693 147.614L65.4556 142.159ZM66.0396 142.079C65.9909 141.981 65.9437 141.893 65.9045 141.822C65.8651 141.751 65.827 141.684 65.7961 141.63C65.7805 141.602 65.7649 141.575 65.7513 141.552C65.7372 141.527 65.7249 141.506 65.7129 141.485C65.6889 141.443 65.671 141.412 65.6564 141.385C65.624 141.326 65.6248 141.324 65.6389 141.355C65.6472 141.374 65.6644 141.414 65.6849 141.472C65.705 141.53 65.7339 141.62 65.7601 141.739L58.9251 143.25C59.0137 143.65 59.1455 143.981 59.243 144.2C59.3445 144.428 59.4505 144.627 59.5285 144.769C59.6019 144.902 59.6875 145.049 59.7236 145.112C59.7766 145.204 59.7816 145.216 59.7724 145.197L66.0396 142.079ZM65.7601 141.739C65.3854 140.044 64.9802 138.129 64.4674 136.325L57.7342 138.239C58.1754 139.791 58.5272 141.45 58.9251 143.25L65.7601 141.739ZM64.4674 136.325C64.2702 135.632 63.9754 134.563 63.4041 133.479L57.2108 136.741C57.3939 137.089 57.5177 137.478 57.7342 138.239L64.4674 136.325ZM63.4041 133.479C63.2816 133.246 63.1632 133.058 63.1075 132.969C63.0735 132.915 63.0665 132.903 63.0607 132.894C63.0581 132.889 63.073 132.914 63.0951 132.956C63.1453 133.052 63.2205 133.217 63.2762 133.432C63.3317 133.647 63.3475 133.832 63.3475 133.966H56.3475C56.3475 134.365 56.3927 134.774 56.4995 135.186C56.6064 135.599 56.7546 135.937 56.8918 136.199C57.0114 136.428 57.1429 136.633 57.1745 136.684C57.2261 136.766 57.2212 136.761 57.2108 136.741L63.4041 133.479ZM63.3475 133.966C63.3475 134.077 63.3384 134.146 63.3535 133.97C63.3621 133.869 63.3807 133.661 63.3903 133.445C63.3993 133.243 63.408 132.898 63.3627 132.512C63.3394 132.314 63.2942 132.035 63.1951 131.72C63.0998 131.417 62.9143 130.951 62.5399 130.48L57.0631 134.84C56.7348 134.427 56.5854 134.036 56.5179 133.821C56.4466 133.595 56.4208 133.417 56.4105 133.329C56.3911 133.164 56.3998 133.076 56.3972 133.134C56.3952 133.179 56.3906 133.236 56.3791 133.372C56.3744 133.427 56.3671 133.511 56.3613 133.594C56.3561 133.671 56.3475 133.809 56.3475 133.966H63.3475ZM62.5399 130.48C62.7526 130.747 62.8267 130.958 62.8452 131.013C62.8703 131.089 62.8777 131.14 62.8806 131.179C62.8832 131.215 62.8878 131.317 62.8528 131.478C62.8202 131.629 62.7228 131.969 62.4249 132.343L56.9481 127.984C55.9122 129.285 55.8352 130.816 55.8993 131.691C55.966 132.6 56.2586 133.829 57.0631 134.84L62.5399 130.48ZM62.4249 132.343C63.364 131.164 63.4898 129.756 63.53 129.22C63.5786 128.574 63.5544 127.783 63.5544 127.621H56.5544C56.5544 127.741 56.5561 127.866 56.5575 127.967C56.5589 128.076 56.5602 128.17 56.5605 128.264C56.5612 128.455 56.5575 128.592 56.5498 128.695C56.5414 128.807 56.5333 128.802 56.5547 128.722C56.5669 128.677 56.5943 128.586 56.6493 128.466C56.7044 128.345 56.7973 128.173 56.9481 127.984L62.4249 132.343ZM63.5544 127.621C63.5544 127.307 63.5355 126.984 63.5251 126.791C63.5126 126.557 63.5065 126.419 63.5068 126.303C63.5072 126.189 63.5146 126.183 63.504 126.242C63.493 126.303 63.4503 126.505 63.304 126.763L57.2188 123.303C56.5539 124.472 56.5087 125.679 56.5069 126.282C56.5058 126.624 56.5235 126.949 56.5352 127.166C56.5489 127.422 56.5544 127.535 56.5544 127.621H63.5544ZM63.304 126.763C63.4932 126.43 64.3186 125.161 64.6744 123.91L57.9411 121.995C57.9416 121.994 57.9137 122.085 57.7769 122.337C57.7118 122.457 57.6365 122.587 57.5394 122.752C57.4511 122.903 57.3303 123.107 57.2188 123.303L63.304 126.763ZM64.6744 123.91C64.5431 124.371 64.3279 124.634 64.2889 124.68C64.2459 124.732 64.2476 124.719 64.3811 124.603C64.4428 124.549 64.5087 124.493 64.604 124.412C64.6902 124.34 64.8049 124.242 64.9205 124.14C65.132 123.954 65.4876 123.63 65.8119 123.211L60.276 118.927C60.3681 118.808 60.4161 118.78 60.2903 118.891C60.2374 118.937 60.1761 118.989 60.0846 119.067C60.0021 119.136 59.8887 119.232 59.7752 119.331C59.5581 119.521 59.2256 119.822 58.9105 120.2C58.5994 120.573 58.1743 121.175 57.9411 121.995L64.6744 123.91ZM65.8119 123.211C65.9865 122.985 66.2122 122.793 66.9044 122.236L62.5181 116.781C61.9965 117.201 61.0553 117.92 60.276 118.927L65.8119 123.211ZM66.9044 122.236C66.9056 122.235 66.8899 122.248 66.8587 122.267C66.8267 122.287 66.7884 122.307 66.7467 122.325C66.6581 122.362 66.6153 122.364 66.6718 122.355L65.6022 115.437C64.4827 115.61 63.4699 116.016 62.5181 116.781L66.9044 122.236ZM66.6718 122.355C67.968 122.155 68.7914 121.43 69.0896 121.161C69.1678 121.09 69.2414 121.021 69.2768 120.987C69.3228 120.944 69.3351 120.933 69.3408 120.928C69.3523 120.917 69.2537 121.009 69.0795 121.112L65.5171 115.086C65.1318 115.314 64.8443 115.558 64.6757 115.709C64.5914 115.784 64.5159 115.855 64.4746 115.894C64.4227 115.943 64.4096 115.955 64.3999 115.964C64.3942 115.969 64.4174 115.948 64.4602 115.915C64.5042 115.88 64.5787 115.826 64.6805 115.765C64.7839 115.704 64.9162 115.636 65.076 115.576C65.2374 115.515 65.414 115.467 65.6022 115.437L66.6718 122.355ZM69.0795 121.112C69.9039 120.624 70.4191 119.974 70.7364 119.445C71.0341 118.949 71.2125 118.465 71.3034 118.212C71.4334 117.851 71.435 117.83 71.4738 117.738C71.4936 117.692 71.4185 117.894 71.1935 118.146L65.9788 113.476C65.4707 114.043 65.1866 114.635 65.0287 115.007C64.9458 115.203 64.8793 115.384 64.8314 115.518C64.8074 115.585 64.784 115.652 64.766 115.703C64.7465 115.759 64.7316 115.801 64.7175 115.84C64.6508 116.025 64.6602 115.966 64.7348 115.842C64.8289 115.685 65.0669 115.352 65.5171 115.086L69.0795 121.112ZM71.1935 118.146C71.6424 117.644 71.9164 117.13 72.0872 116.746C72.252 116.376 72.3648 116.021 72.42 115.85C72.4974 115.61 72.4998 115.61 72.4898 115.633C72.4757 115.666 72.3452 115.978 72.0101 116.315L67.0479 111.378C66.4983 111.93 66.2068 112.524 66.0559 112.876C65.909 113.218 65.7988 113.575 65.7581 113.701C65.6954 113.895 65.685 113.915 65.6919 113.9C65.7049 113.871 65.7863 113.691 65.9788 113.476L71.1935 118.146ZM72.0101 116.315C72.3401 115.983 72.7133 115.548 73.0082 114.988C73.3304 114.377 73.4804 113.77 73.525 113.199C73.5619 112.727 73.5197 112.292 73.5094 112.165C73.4941 111.976 73.4889 111.902 73.4889 111.812H66.4889C66.4889 112.222 66.5185 112.56 66.5322 112.73C66.5359 112.774 66.538 112.802 66.5396 112.824C66.5411 112.845 66.5412 112.851 66.541 112.846C66.5408 112.84 66.5375 112.765 66.5463 112.653C66.5557 112.533 66.5779 112.378 66.6269 112.202C66.6763 112.024 66.7424 111.863 66.8161 111.724C66.9556 111.459 67.0868 111.338 67.0479 111.378L72.0101 116.315ZM73.2821 112.02C73.2821 110.653 73.2269 109.328 73.1756 108.084C73.1234 106.818 73.0751 105.633 73.0751 104.428H66.0751C66.0751 105.8 66.1302 107.128 66.1815 108.372C66.2337 109.638 66.2821 110.82 66.2821 112.02H73.2821ZM73.0751 104.428C73.0751 103.969 73.1261 103.706 73.1774 102.727C73.2135 102.039 73.2527 100.873 72.9302 99.7381L66.197 101.652C66.1748 101.574 66.189 101.585 66.1965 101.739C66.2036 101.886 66.2015 102.085 66.187 102.36C66.1718 102.65 66.15 102.915 66.1242 103.281C66.1013 103.607 66.0751 104.019 66.0751 104.428H73.0751ZM72.9302 99.7381C72.8128 99.3253 72.6389 98.9549 72.4295 98.6295C72.2246 98.3108 72.0064 98.0673 71.8272 97.8912C71.6552 97.722 71.4981 97.5953 71.4212 97.534C71.3862 97.5061 71.3411 97.4708 71.3331 97.4645C71.3151 97.4504 71.317 97.4517 71.3255 97.4587C71.3551 97.4831 71.6466 97.7185 71.8924 98.1483C72.0175 98.3672 72.1115 98.6013 72.1714 98.8403C72.2301 99.0749 72.2472 99.279 72.2472 99.4355H65.2472C65.2472 100.167 65.4146 100.922 65.8154 101.623C66.1911 102.28 66.6588 102.684 66.874 102.861C66.9289 102.906 66.9777 102.945 67.0067 102.968C67.0457 102.998 67.0476 102.999 67.059 103.009C67.0748 103.021 67.0082 102.97 66.9196 102.883C66.7036 102.67 66.3702 102.261 66.197 101.652L72.9302 99.7381ZM72.2472 99.4355C72.2472 99.7055 72.1559 99.9036 72.2705 99.564C72.3604 99.2975 72.6611 98.4816 72.6611 97.4594H65.6611C65.6611 97.1832 65.7549 96.9791 65.6379 97.3261C65.5455 97.5999 65.2472 98.413 65.2472 99.4355H72.2472ZM72.0402 97.2514C72.0402 95.6666 71.9258 94.1354 71.8236 92.757C71.7185 91.338 71.6262 90.079 71.6262 88.8269H64.6262C64.6262 90.3818 64.7409 91.9002 64.8428 93.2743C64.9476 94.689 65.0402 95.9665 65.0402 97.2514H72.0402ZM71.6262 88.8269V86.8508H64.6262V88.8269H71.6262ZM71.6262 86.8508C71.6262 86.7782 71.6292 86.69 71.6357 86.5178C71.6414 86.3694 71.6504 86.1447 71.6507 85.91C71.6515 85.4607 71.627 84.7089 71.3626 83.896L64.7059 86.0613C64.6635 85.9308 64.6522 85.8416 64.6498 85.8204C64.6476 85.8008 64.6509 85.8187 64.6508 85.8989C64.6506 85.9842 64.6473 86.0813 64.6409 86.2504C64.6353 86.3956 64.6262 86.6206 64.6262 86.8508H71.6262ZM71.3626 83.896C71.2041 83.4089 71.0153 83.0406 70.8872 82.8064C70.858 82.7531 70.8307 82.7044 70.8136 82.674C70.7934 82.638 70.7862 82.6251 70.7808 82.6153C70.7691 82.5939 70.8046 82.656 70.8478 82.7587C70.8953 82.8716 70.9583 83.0464 71.0016 83.2699C71.046 83.4988 71.0605 83.7317 71.0459 83.9586C71.0178 84.3951 70.891 84.664 70.882 84.6831L64.5425 81.7148C64.3288 82.1714 64.1072 82.7815 64.0604 83.5086C64.0091 84.3053 64.1837 84.9699 64.3962 85.4748C64.489 85.6952 64.5845 85.8739 64.6391 85.9736C64.6668 86.0244 64.6943 86.0733 64.7098 86.1008C64.7284 86.134 64.7378 86.1508 64.7458 86.1654C64.7665 86.2032 64.7342 86.1482 64.7059 86.0613L71.3626 83.896ZM70.882 84.6831C70.7732 84.9156 70.6869 84.9774 70.8621 84.7747C71.0645 84.5407 71.1477 84.4661 71.5057 84.069C71.7629 83.7837 72.1537 83.337 72.4847 82.8083C72.7976 82.3087 73.282 81.3888 73.282 80.1943H66.282C66.282 79.8272 66.3587 79.5445 66.4202 79.3749C66.4804 79.209 66.5401 79.1121 66.5518 79.0935C66.561 79.0788 66.5139 79.1519 66.3067 79.3817C66.2088 79.4903 66.1138 79.5922 65.9816 79.7354C65.8612 79.8659 65.7137 80.0267 65.5672 80.1962C65.3145 80.4883 64.8635 81.0293 64.5425 81.7148L70.882 84.6831ZM73.489 80.1944C73.489 80.4163 73.4524 80.5718 73.4395 80.6211C73.4321 80.6495 73.4295 80.6494 73.4877 80.4882C73.528 80.3768 73.6341 80.0907 73.7183 79.7773C73.8088 79.4408 73.9029 78.9765 73.9029 78.4263H66.9029C66.9029 78.1796 66.9453 78.0085 66.9581 77.9608C66.9647 77.9363 66.9674 77.9347 66.9042 78.1097C66.8589 78.235 66.7528 78.5232 66.6678 78.848C66.5773 79.1937 66.489 79.6537 66.489 80.1944H73.489ZM73.9029 78.4263C73.9029 78.4745 73.9006 78.4952 73.9016 78.4835C73.9023 78.4745 73.9047 78.4513 73.91 78.4153C73.9209 78.3404 73.9387 78.2503 73.9608 78.1645C73.9714 78.1234 73.9813 78.0903 73.9891 78.0664C73.9971 78.0417 74.0004 78.0349 73.9965 78.0441C73.9935 78.0514 73.9761 78.0924 73.9396 78.1574C73.9207 78.191 73.8936 78.2364 73.8573 78.2904C73.8212 78.3439 73.7716 78.4124 73.7066 78.49L68.341 73.9943C67.6182 74.857 67.3109 75.9196 67.1831 76.4144C67.0254 77.0254 66.9029 77.7634 66.9029 78.4263H73.9029ZM73.7066 78.49C73.9286 78.225 74.2226 77.94 74.6608 77.5447C75.0439 77.1992 75.6338 76.6867 76.1495 76.1684L71.1873 71.2311C70.8485 71.5716 70.5042 71.8672 69.9726 72.3466C69.4962 72.7762 68.8951 73.333 68.341 73.9943L73.7066 78.49ZM76.1495 76.1684C75.8804 76.4389 75.634 76.5381 75.6042 76.5499C75.6014 76.551 75.6482 76.5332 75.945 76.4594C76.1596 76.4061 76.6332 76.2944 77.1013 76.1218C77.5965 75.9392 78.2747 75.6255 78.9139 75.0473L74.2181 69.856C74.3464 69.74 74.4639 69.6641 74.5465 69.618C74.6266 69.5734 74.678 69.5546 74.6797 69.554C74.6803 69.5538 74.6531 69.5637 74.577 69.5845C74.4948 69.6071 74.4078 69.6286 74.2576 69.6659C74.0174 69.7255 73.5298 69.8433 73.0359 70.0381C72.5149 70.2435 71.8206 70.5947 71.1873 71.2311L76.1495 76.1684ZM78.9139 75.0473C78.5558 75.3713 78.2299 75.4462 78.226 75.4472C78.2176 75.4492 78.2472 75.4417 78.3394 75.43C78.4347 75.4179 78.5474 75.4072 78.7231 75.3918C79.0024 75.3675 79.5898 75.324 80.1651 75.2021C80.7633 75.0753 81.6522 74.8085 82.4845 74.1393L78.0983 68.684C78.4575 68.3951 78.759 68.3446 78.7137 68.3542C78.6454 68.3687 78.533 68.3818 78.1141 68.4184C77.7992 68.4459 77.1936 68.495 76.5797 68.6435C75.939 68.7986 75.0358 69.1163 74.2181 69.856L78.9139 75.0473ZM82.4845 74.1393C82.1045 74.4449 81.7844 74.5126 81.7704 74.5157C81.7376 74.5232 81.7953 74.5078 81.9921 74.5021C82.1801 74.4967 82.401 74.5019 82.6905 74.5132C82.9273 74.5225 83.321 74.5418 83.6489 74.5418V67.5418C83.5018 67.5418 83.3308 67.533 82.9647 67.5186C82.6513 67.5063 82.2309 67.4924 81.7908 67.505C81.1577 67.5232 79.4629 67.5867 78.0983 68.684L82.4845 74.1393ZM83.6489 74.5418C83.4976 74.5418 83.268 74.5194 82.9972 74.4262C82.7204 74.3308 82.4695 74.1851 82.2597 74.0102C81.8705 73.6857 81.7471 73.364 81.7738 73.4241C81.781 73.4403 81.7999 73.4857 81.8426 73.6039C81.8687 73.6761 81.9498 73.9066 82.0102 74.0672C82.0816 74.2571 82.184 74.5154 82.3216 74.7925C82.4599 75.0709 82.656 75.4144 82.9342 75.7639L88.411 71.4045C88.6063 71.6499 88.6454 71.8246 88.5623 71.6036C88.5526 71.5776 88.3381 70.9575 88.1687 70.577C87.9588 70.1056 87.547 69.3046 86.7422 68.6336C85.8462 67.8866 84.7604 67.5418 83.6489 67.5418V74.5418ZM82.9342 75.7639C82.776 75.5652 82.5832 75.2493 82.4724 74.8168C82.3587 74.373 82.3629 73.9276 82.4523 73.5283C82.6152 72.8001 83.0076 72.4257 83.0556 72.3794C83.138 72.3001 83.1605 72.2997 83.0694 72.3532C82.9953 72.3967 82.9105 72.4382 82.8423 72.4687L85.6973 78.86C86.0384 78.7076 87.067 78.2344 87.9107 77.4221C88.3366 77.012 89.0214 76.2278 89.2834 75.0566C89.5912 73.6807 89.1867 72.379 88.411 71.4045L82.9342 75.7639ZM82.8423 72.4687C82.8688 72.4568 82.7982 72.4896 82.587 72.5361C82.3898 72.5795 82.1398 72.6197 81.846 72.6528C81.2544 72.7194 80.6213 72.7421 80.1304 72.7421V79.7421C80.7994 79.7421 81.706 79.7128 82.6292 79.6088C83.4746 79.5136 84.659 79.3238 85.6973 78.86L82.8423 72.4687ZM80.1304 72.7421C78.8379 72.7421 77.8142 73.1121 77.2402 73.3232C76.5643 73.5718 76.5099 73.5869 76.4305 73.5958L77.2074 80.5526C78.3239 80.4279 79.2923 80.027 79.6567 79.8929C80.123 79.7214 80.1571 79.7421 80.1304 79.7421V72.7421ZM76.4305 73.5958C73.6773 73.9033 72.0299 75.9455 71.475 76.5652L76.6897 81.2349C76.876 81.0269 77.007 80.8817 77.1354 80.7511C77.2587 80.6257 77.3405 80.5547 77.3929 80.5145C77.4797 80.4477 77.3969 80.5314 77.2074 80.5526L76.4305 73.5958ZM71.475 76.5652C69.337 78.9527 68.3517 82.6491 68.3517 85.3947H75.3517C75.3517 83.8665 75.9992 82.006 76.6897 81.2349L71.475 76.5652ZM68.3517 85.3947C68.3517 87.2114 67.955 90.1959 69.0024 93.2371L75.6208 90.9576C75.0802 89.3878 75.3517 88.5075 75.3517 85.3947H68.3517ZM69.0024 93.2371C69.1971 93.8025 69.5775 95.1404 69.6853 96.3003C69.7106 96.5723 69.7167 96.7945 69.7101 96.9652C69.7032 97.1428 69.6845 97.2071 69.69 97.1868C69.699 97.1536 69.9578 96.3442 70.9468 96.0129L73.1705 102.65C75.2293 101.961 76.1155 100.245 76.4487 99.0091C76.7692 97.8203 76.7424 96.5902 76.6553 95.6528C76.4765 93.7287 75.9137 91.8079 75.6208 90.9576L69.0024 93.2371ZM71.4154 102.804C70.9824 102.75 70.6675 102.624 70.5306 102.564C70.369 102.494 70.2503 102.426 70.1822 102.384C70.0474 102.302 69.959 102.23 69.9078 102.186C69.8565 102.141 69.7721 102.063 69.6706 101.94C69.6189 101.878 69.5355 101.771 69.4446 101.622C69.365 101.493 69.2067 101.215 69.0945 100.82L75.8277 98.9061C75.6101 98.1405 75.1873 97.6272 75.0666 97.481C74.872 97.2456 74.6694 97.0492 74.4925 96.8959C74.3158 96.7427 74.0945 96.5716 73.8375 96.4143C73.6947 96.3269 73.1065 95.9617 72.288 95.8588L71.4154 102.804ZM69.0945 100.82C69.1092 100.872 69.2066 101.239 69.3437 101.561C69.4282 101.759 69.606 102.138 69.9389 102.53C70.3195 102.979 70.7979 103.324 71.3346 103.544C71.7957 103.733 72.1921 103.783 72.3353 103.799C72.4193 103.809 72.4897 103.815 72.5206 103.817C72.5377 103.818 72.5542 103.819 72.5622 103.82C72.5725 103.821 72.5767 103.821 72.5803 103.821C72.5877 103.822 72.5624 103.82 72.5265 103.815C72.4903 103.81 72.4586 103.804 72.4341 103.799L73.9599 96.9673C73.5831 96.8832 73.2902 96.8549 73.108 96.8412C72.9778 96.8313 73.077 96.8385 73.1391 96.8456C73.2228 96.8553 73.5704 96.8954 73.9896 97.0672C74.4844 97.27 74.9279 97.5905 75.2768 98.0018C75.5781 98.3569 75.7275 98.6858 75.7834 98.8168C75.8157 98.8927 75.8369 98.9514 75.8473 98.9814C75.8529 98.9976 75.857 99.01 75.8595 99.0175C75.8619 99.0251 75.8632 99.0294 75.8633 99.0296C75.8634 99.0299 75.8627 99.0275 75.8609 99.0217C75.8592 99.0158 75.8568 99.0078 75.8537 98.9968C75.847 98.9737 75.839 98.9458 75.8277 98.9061L69.0945 100.82ZM72.4341 103.799C72.0707 103.718 71.7133 103.559 71.3953 103.325C71.0848 103.097 70.8709 102.841 70.7302 102.625C70.4739 102.232 70.4262 101.919 70.4239 101.905C70.4166 101.863 70.4244 101.888 70.426 102.025C70.4267 102.086 70.4262 102.154 70.4249 102.242C70.4239 102.311 70.4214 102.445 70.4214 102.556H77.4214C77.4214 102.541 77.4657 101.546 77.3215 100.713C77.2023 100.023 76.6253 97.5626 73.9599 96.9673L72.4341 103.799ZM70.4214 102.556C70.4214 104.463 71.3273 105.962 72.0099 106.875C72.7039 107.804 73.5615 108.624 73.9699 109.034L78.9321 104.097C78.3456 103.508 77.9384 103.115 77.6164 102.684C77.2829 102.238 77.4214 102.232 77.4214 102.556H70.4214ZM73.9699 109.034C73.8412 108.905 73.9329 108.914 74.1978 109.711C74.2757 109.946 74.4653 110.552 74.5994 110.937C74.7605 111.399 74.9844 111.984 75.308 112.569L81.4344 109.183C81.2722 108.89 81.1958 108.573 80.8407 107.504C80.5857 106.737 80.0854 105.256 78.9321 104.097L73.9699 109.034ZM75.308 112.569C75.4374 112.803 75.4392 112.838 75.6782 113.31C75.8638 113.678 76.1405 114.188 76.5642 114.72L82.041 110.361C82.047 110.368 82.0198 110.339 81.9251 110.152C81.8672 110.037 81.8284 109.955 81.737 109.769C81.6585 109.608 81.5566 109.404 81.4344 109.183L75.308 112.569ZM76.5642 114.72C76.4121 114.529 76.371 114.408 76.4425 114.56C76.4689 114.615 76.4996 114.684 76.5473 114.792C76.5895 114.887 76.6503 115.026 76.7133 115.163C76.8336 115.425 77.0338 115.843 77.318 116.264C77.5951 116.674 78.0905 117.299 78.8933 117.76L82.3794 111.689C82.8604 111.966 83.0834 112.294 83.119 112.346C83.1617 112.41 83.1515 112.409 83.0739 112.24C83.038 112.162 83.003 112.083 82.9503 111.963C82.9031 111.856 82.8398 111.713 82.7708 111.567C82.7014 111.421 82.611 111.238 82.5009 111.045C82.3923 110.854 82.2413 110.612 82.041 110.361L76.5642 114.72ZM78.8933 117.76C79.7044 118.225 80.8126 118.849 82.614 118.849V111.849C82.5633 111.849 82.5656 111.845 82.6034 111.851C82.6453 111.858 82.6906 111.87 82.7276 111.883C82.7589 111.894 82.7572 111.897 82.7007 111.868C82.6718 111.853 82.6329 111.833 82.5782 111.802C82.5227 111.771 82.4598 111.736 82.3794 111.689L78.8933 117.76ZM82.614 118.849C82.4339 118.849 82.3382 118.8 82.8103 118.93C83.1136 119.014 83.9468 119.265 84.8907 119.265V112.265C85.0503 112.265 85.1246 112.307 84.6752 112.183C84.3948 112.106 83.5529 111.849 82.614 111.849V118.849ZM84.8907 119.265C84.7321 119.265 84.8013 119.216 85.2615 119.455C85.4705 119.563 85.7004 119.699 85.993 119.877C86.2507 120.035 86.6234 120.268 86.965 120.464L90.4512 114.394C90.2495 114.278 89.147 113.585 88.4898 113.244C87.6664 112.816 86.4013 112.265 84.8907 112.265V119.265ZM86.965 120.464C87.3739 120.699 87.6361 120.992 87.8411 122.06C87.9561 122.659 88.0153 123.312 88.1003 124.212C88.1782 125.038 88.2794 126.085 88.5102 127.129L95.3451 125.618C95.2203 125.053 95.1504 124.413 95.0693 123.554C94.9953 122.77 94.9076 121.74 94.7156 120.74C94.3066 118.609 93.3147 116.038 90.4512 114.394L86.965 120.464ZM88.2206 126.581C88.2206 126.599 88.2177 126.896 88.22 127.034C88.2234 127.237 88.2362 127.586 88.318 127.99C88.5198 128.985 89.0165 129.75 89.6074 130.344L94.5696 125.407C94.6253 125.463 94.7593 125.608 94.8937 125.843C95.0385 126.096 95.1299 126.359 95.1786 126.599C95.2205 126.806 95.2195 126.947 95.219 126.917C95.2188 126.906 95.2187 126.882 95.2192 126.818C95.2196 126.766 95.2206 126.674 95.2206 126.581H88.2206ZM89.6074 130.344C89.4052 130.141 89.0911 129.741 88.928 129.133C88.7667 128.532 88.8393 128.043 88.8834 127.834C88.9033 127.74 88.9221 127.681 88.9151 127.704C88.9116 127.716 88.9081 127.727 88.8966 127.764C88.8871 127.794 88.8718 127.843 88.8557 127.897C88.7914 128.113 88.67 128.546 88.6399 129.092L95.6292 129.479C95.6146 129.742 95.557 129.92 95.5642 129.896C95.594 129.796 95.5541 129.932 95.6126 129.74C95.64 129.65 95.6903 129.48 95.7332 129.276C95.8237 128.847 95.9098 128.142 95.6887 127.319C95.4658 126.488 95.0187 125.858 94.5696 125.407L89.6074 130.344ZM88.6399 129.092C88.6032 129.756 88.6345 130.67 88.6345 130.949H95.6345C95.6345 130.125 95.605 129.916 95.6292 129.479L88.6399 129.092ZM88.6345 130.949C88.6345 131.415 88.7 131.805 88.7568 132.075C88.7851 132.209 88.8143 132.327 88.8353 132.41C88.8457 132.451 88.8563 132.492 88.8635 132.52C88.8716 132.551 88.877 132.572 88.8816 132.59C88.9034 132.677 88.8801 132.602 88.8667 132.468C88.8509 132.311 88.8454 132.058 88.9125 131.754L95.7475 133.265C95.9962 132.14 95.7488 131.196 95.6713 130.887C95.66 130.842 95.6491 130.8 95.6407 130.767C95.6315 130.732 95.6255 130.709 95.6196 130.685C95.608 130.64 95.6058 130.629 95.6065 130.632C95.6082 130.641 95.6345 130.763 95.6345 130.949H88.6345ZM88.9125 131.754C88.7442 132.515 88.6345 133.236 88.6345 134.174H95.6345C95.6345 133.868 95.6586 133.667 95.7475 133.265L88.9125 131.754ZM88.6345 134.174C88.6345 134.591 88.6818 134.998 88.7817 135.399C88.8804 135.795 89.0117 136.107 89.1087 136.316C89.153 136.411 89.1961 136.498 89.2153 136.536C89.2275 136.561 89.2337 136.573 89.2394 136.585C89.2443 136.595 89.2457 136.598 89.245 136.596C89.238 136.581 89.2022 136.502 89.1704 136.39L95.9036 134.476C95.8019 134.119 95.6809 133.834 95.5854 133.63C95.542 133.537 95.5002 133.454 95.4812 133.415C95.456 133.365 95.4554 133.363 95.458 133.369C95.4719 133.399 95.5288 133.525 95.5739 133.706C95.6201 133.892 95.6345 134.054 95.6345 134.174H88.6345ZM89.1704 136.39C89.3023 136.855 89.2554 137.317 89.2554 138.854H96.2554C96.2554 138.117 96.3838 136.166 95.9036 134.476L89.1704 136.39ZM89.2766 139.239C89.3533 139.932 89.5905 140.48 89.7938 140.849C89.9919 141.209 90.2075 141.487 90.3293 141.639C90.3936 141.719 90.4552 141.792 90.492 141.836C90.5366 141.889 90.5531 141.909 90.5665 141.925C90.6022 141.969 90.5161 141.871 90.4167 141.691L96.543 138.305C96.4371 138.113 96.3303 137.953 96.2421 137.829C96.1538 137.705 96.0708 137.6 96.0082 137.522C95.9478 137.448 95.8875 137.376 95.8551 137.337C95.8148 137.289 95.7991 137.27 95.7885 137.257C95.7796 137.246 95.7913 137.26 95.8132 137.291C95.8351 137.322 95.8771 137.384 95.926 137.473C96.0209 137.646 96.1812 137.989 96.2342 138.469L89.2766 139.239ZM90.4167 141.691C90.1805 141.264 90.1101 140.874 90.0892 140.643C90.0721 140.454 90.087 140.322 90.0789 140.447C90.077 140.476 90.0692 140.587 90.0646 140.69C90.0595 140.804 90.0548 140.97 90.0626 141.162C90.0784 141.549 90.147 142.13 90.4283 142.766L96.8303 139.935C97.0181 140.359 97.0504 140.718 97.0568 140.877C97.0615 140.992 97.0516 141.094 97.0643 140.899C97.0712 140.792 97.0983 140.427 97.0606 140.011C97.0191 139.554 96.8953 138.942 96.543 138.305L90.4167 141.691ZM90.4283 142.766C90.3161 142.512 90.2898 142.3 90.2849 142.19C90.2806 142.092 90.2929 142.066 90.2777 142.153C90.262 142.243 90.2334 142.366 90.1754 142.588C90.1541 142.669 90.11 142.834 90.0811 142.946C90.047 143.078 90.0075 143.235 89.9704 143.403L96.8053 144.914C96.8342 144.783 96.8686 144.66 96.9468 144.362C97.0124 144.112 97.1045 143.751 97.1733 143.357C97.3039 142.609 97.4363 141.305 96.8303 139.935L90.4283 142.766ZM89.9704 143.403C89.3715 146.111 89.6694 148.885 89.6694 150.503H96.6694C96.6694 147.746 96.4262 146.629 96.8053 144.914L89.9704 143.403ZM89.6694 150.503C89.6694 150.508 89.6723 150.59 89.5671 150.909C89.5087 151.085 89.4471 151.25 89.3452 151.53C89.2538 151.783 89.1368 152.11 89.0304 152.471L95.7447 154.451C95.7871 154.307 95.8423 154.147 95.9254 153.918C95.9981 153.718 96.1133 153.408 96.2132 153.106C96.4244 152.468 96.6694 151.576 96.6694 150.503H89.6694ZM89.0304 152.471C88.5647 154.051 88.6346 155.856 88.6346 156.639H95.6346C95.6346 155.366 95.6363 154.818 95.7447 154.451L89.0304 152.471ZM88.6346 156.639C88.6346 156.826 88.6121 157.051 88.5575 157.492C88.513 157.852 88.4276 158.489 88.4276 159.135H95.4276C95.4276 159.006 95.4456 158.828 95.5046 158.351C95.5535 157.956 95.6346 157.32 95.6346 156.639H88.6346ZM88.4276 159.135C88.4276 159.395 88.4564 159.825 88.4634 159.956C88.4768 160.207 88.4809 160.376 88.4773 160.479C88.4755 160.529 88.4738 160.5 88.4869 160.418C88.4936 160.376 88.5397 160.07 88.7349 159.68C88.9189 159.312 89.518 158.333 90.8532 157.989C92.1747 157.649 93.1548 158.206 93.4619 158.412L89.5654 164.227C90.0422 164.547 91.1625 165.138 92.5995 164.768C94.0501 164.394 94.7399 163.322 94.9945 162.813C95.4436 161.916 95.4644 160.97 95.473 160.723C95.4881 160.291 95.4684 159.862 95.4534 159.582C95.4487 159.494 95.4339 159.24 95.4324 159.213C95.4262 159.099 95.4276 159.095 95.4276 159.135H88.4276ZM88.0309 161.181C87.8724 162.774 88.0137 164.621 88.0137 165.48H95.0137C95.0137 163.583 94.877 163.075 94.9965 161.874L88.0309 161.181ZM88.0137 165.48C88.0137 165.702 88.0276 165.923 88.0391 166.081C88.0515 166.251 88.0678 166.436 88.0828 166.602C88.1147 166.958 88.1445 167.283 88.1625 167.597C88.1814 167.926 88.1788 168.115 88.1727 168.191C88.1697 168.228 88.1723 168.15 88.2108 168.003C88.2393 167.894 88.3565 167.466 88.7293 166.998L94.2061 171.357C94.6896 170.75 94.8912 170.125 94.9828 169.775C95.0844 169.387 95.1285 169.024 95.1507 168.746C95.1947 168.192 95.1759 167.629 95.151 167.195C95.1251 166.746 95.0834 166.297 95.0548 165.977C95.0186 165.573 95.0137 165.47 95.0137 165.48H88.0137ZM88.7293 166.998C87.9169 168.019 87.6486 169.133 87.5593 169.966C87.4736 170.765 87.5323 171.535 87.5728 172.022C87.6229 172.625 87.6529 172.892 87.6533 173.165C87.6537 173.417 87.6159 173.284 87.7378 173.009L94.1398 175.84C94.5912 174.819 94.6543 173.821 94.6533 173.154C94.6523 172.507 94.5786 171.801 94.5487 171.441C94.5091 170.966 94.5115 170.785 94.5194 170.712C94.5237 170.671 94.499 170.989 94.2061 171.357L88.7293 166.998ZM87.7378 173.009C87.1491 174.34 87.089 175.628 87.0539 176.328C87.0104 177.197 86.9932 177.352 86.9498 177.483L93.5939 179.686C94.0031 178.453 94.0187 177.207 94.0452 176.678C94.0802 175.978 94.1273 175.868 94.1398 175.84L87.7378 173.009ZM86.7987 178.153C86.8291 177.908 86.8939 177.799 86.8569 177.878C86.8237 177.949 86.7547 178.076 86.6125 178.303C86.5437 178.414 86.4712 178.526 86.3831 178.663C86.2999 178.793 86.2012 178.946 86.104 179.102C85.9182 179.401 85.6687 179.82 85.4612 180.289L91.8632 183.12C91.8624 183.122 91.8739 183.096 91.9076 183.035C91.941 182.975 91.9864 182.899 92.0496 182.797C92.1137 182.694 92.1837 182.585 92.2705 182.45C92.3524 182.322 92.4513 182.169 92.5491 182.012C92.7402 181.707 92.9856 181.298 93.1989 180.841C93.4086 180.392 93.6523 179.763 93.7451 179.016L86.7987 178.153ZM85.4612 180.289C85.1477 180.998 85.0055 181.707 84.9452 181.978C84.86 182.36 84.8473 182.352 84.8753 182.293L91.2073 185.277C91.5549 184.539 91.7057 183.823 91.7775 183.501C91.8741 183.068 91.8824 183.077 91.8632 183.12L85.4612 180.289ZM84.8753 182.293C84.6211 182.832 83.9588 184.24 83.8797 185.672L90.869 186.058C90.8639 186.152 90.8522 186.187 90.8609 186.15C90.8687 186.117 90.8862 186.054 90.9197 185.958C90.9889 185.76 91.0888 185.528 91.2073 185.277L84.8753 182.293ZM83.8797 185.672C83.8648 185.941 83.7578 186.37 83.46 187.289C83.2277 188.006 82.7979 189.24 82.6563 190.45L89.6088 191.264C89.6511 190.903 89.7983 190.437 90.1189 189.448C90.3741 188.66 90.796 187.379 90.869 186.058L83.8797 185.672ZM82.6563 190.45C82.6986 190.089 82.8101 189.822 82.8774 189.687C82.9241 189.593 82.9721 189.525 82.8685 189.686C82.7635 189.848 82.0903 190.793 82.017 192.12L89.0063 192.507C88.9846 192.899 88.8768 193.203 88.7944 193.383C88.7303 193.523 88.6684 193.608 88.7495 193.482C88.7889 193.421 88.982 193.132 89.1464 192.801C89.3314 192.429 89.5332 191.91 89.6088 191.264L82.6563 190.45ZM82.017 192.12C82.012 192.21 81.9976 192.299 81.9361 192.699C81.8861 193.025 81.8047 193.568 81.8047 194.185H88.8047C88.8047 194.144 88.8099 194.055 88.855 193.762C88.8885 193.543 88.9776 193.026 89.0063 192.507L82.017 192.12ZM82.8236 191.717C82.0901 192.454 81.4734 193.392 81.1804 193.818L86.9451 197.789C87.3912 197.141 87.6035 196.837 87.7858 196.654L82.8236 191.717ZM81.1804 193.818C80.7912 194.383 80.614 194.941 80.5279 195.356C80.4495 195.735 80.4347 196.071 80.4303 196.15C80.4263 196.221 80.4268 196.211 80.4275 196.202C80.429 196.184 80.4355 196.104 80.4555 195.993C80.4952 195.773 80.6101 195.295 80.9743 194.792L86.6453 198.895C87.1077 198.256 87.275 197.622 87.345 197.232C87.3802 197.036 87.3964 196.87 87.4051 196.762C87.413 196.663 87.4182 196.561 87.4194 196.54C87.4253 196.435 87.4227 196.582 87.3823 196.777C87.3342 197.009 87.2209 197.388 86.9451 197.789L81.1804 193.818ZM80.9743 194.792C80.5385 195.394 80.3337 196.002 80.2366 196.32C80.1818 196.5 80.1389 196.666 80.1084 196.788C80.0931 196.85 80.0781 196.911 80.0665 196.959C80.0539 197.01 80.0442 197.05 80.0348 197.087C79.9902 197.264 79.9917 197.222 80.0398 197.113C80.0917 196.995 80.2797 196.605 80.7313 196.242L85.1176 201.697C85.8476 201.11 86.2363 200.41 86.4451 199.937C86.6502 199.471 86.7647 199.028 86.8228 198.797C86.9068 198.463 86.9076 198.443 86.932 198.363C86.9507 198.301 86.8851 198.564 86.6453 198.895L80.9743 194.792ZM80.7313 196.242C80.339 196.557 80.0839 196.891 79.9451 197.09C79.7933 197.307 79.6789 197.512 79.5987 197.666C79.441 197.971 79.3182 198.273 79.2379 198.478C79.1597 198.679 79.0717 198.92 79.0326 199.025C78.9653 199.205 78.9726 199.171 79.0204 199.075L85.2877 202.193C85.369 202.029 85.4324 201.878 85.4732 201.777C85.5169 201.669 85.5573 201.562 85.5897 201.475C85.6185 201.398 85.6593 201.287 85.6826 201.225C85.7113 201.147 85.7359 201.082 85.7588 201.024C85.7817 200.965 85.7988 200.923 85.8111 200.895C85.8241 200.865 85.8249 200.866 85.8133 200.888C85.8046 200.905 85.7626 200.985 85.6839 201.098C85.6427 201.157 85.5805 201.241 85.4955 201.337C85.4121 201.432 85.2874 201.561 85.1176 201.697L80.7313 196.242ZM79.0204 199.075C78.9075 199.302 78.7745 199.523 78.5299 199.938C78.3158 200.302 78.0158 200.818 77.7573 201.402L84.1592 204.233C84.2392 204.053 84.3551 203.842 84.5633 203.488C84.741 203.186 85.0366 202.697 85.2877 202.193L79.0204 199.075ZM77.7573 201.402C77.4244 202.155 77.1269 202.934 76.8793 203.562C76.6165 204.227 76.3844 204.79 76.1229 205.315L82.3902 208.433C82.7929 207.624 83.116 206.827 83.3902 206.132C83.6795 205.399 83.9008 204.818 84.1592 204.233L77.7573 201.402ZM76.1229 205.315C75.9191 205.725 75.3915 206.7 75.0667 207.435L81.4687 210.266C81.7251 209.686 81.9541 209.31 82.3902 208.433L76.1229 205.315ZM75.0667 207.435C75.1302 207.291 75.1757 207.24 75.0915 207.365C75.0563 207.417 75.017 207.473 74.9536 207.564C74.8969 207.645 74.8195 207.756 74.741 207.874C74.5924 208.096 74.3622 208.454 74.1671 208.887C73.9741 209.314 73.7328 209.991 73.7328 210.826H80.7328C80.7328 211.336 80.5877 211.677 80.5472 211.767C80.5045 211.861 80.4832 211.879 80.56 211.764C80.5942 211.713 80.6337 211.656 80.6931 211.571C80.7458 211.496 80.8218 211.387 80.896 211.277C80.9718 211.165 81.0648 211.023 81.1592 210.863C81.2528 210.705 81.3642 210.502 81.4687 210.266L75.0667 207.435ZM76.8444 207.348C75.8042 207.464 75.0162 207.921 74.5302 208.273C74.0325 208.633 73.6392 209.039 73.3674 209.342C73.0908 209.651 72.8421 209.966 72.6819 210.169C72.5921 210.282 72.53 210.36 72.4747 210.428C72.4189 210.496 72.3999 210.516 72.4056 210.51L77.5067 215.303C77.6541 215.147 77.7848 214.992 77.8858 214.869C77.9875 214.745 78.0895 214.616 78.1703 214.514C78.3514 214.285 78.4699 214.137 78.5806 214.013C78.6962 213.884 78.7103 213.889 78.6342 213.944C78.5698 213.99 78.2175 214.238 77.6213 214.305L76.8444 207.348ZM72.4056 210.51C71.6167 211.349 71.0387 212.311 70.6718 212.956L76.757 216.416C77.068 215.869 77.3126 215.51 77.5067 215.303L72.4056 210.51ZM70.6718 212.956C70.6262 213.037 70.5331 213.159 70.1093 213.624C69.7818 213.983 69.1229 214.685 68.6275 215.582L74.7538 218.968C74.7863 218.909 74.867 218.796 75.2833 218.339C75.6033 217.988 76.2581 217.294 76.757 216.416L70.6718 212.956ZM68.6275 215.582C68.3177 216.142 67.7948 216.902 67.313 217.525L72.8489 221.809C73.4553 221.025 74.2089 219.954 74.7538 218.968L68.6275 215.582ZM67.313 217.525C67.1502 217.735 66.9304 217.951 66.414 218.492C66.0328 218.891 65.3542 219.605 64.8766 220.445L70.9619 223.905C70.9563 223.914 71.0498 223.773 71.4772 223.326C71.7693 223.02 72.3943 222.396 72.8489 221.809L67.313 217.525ZM64.8766 220.445C64.9752 220.271 65.0723 220.229 64.6986 220.557C64.5652 220.674 64.295 220.907 64.0423 221.159C63.7744 221.426 63.4348 221.801 63.1304 222.291L69.0747 225.988C68.9976 226.112 68.9411 226.16 68.9846 226.116C69.0432 226.058 69.1125 225.997 69.3189 225.816C69.6249 225.547 70.4031 224.887 70.9619 223.905L64.8766 220.445ZM63.1304 222.291C62.9543 222.574 62.424 223.16 61.5767 223.804C60.7451 224.436 59.9779 224.842 59.5635 224.981L61.7872 231.618C63.178 231.152 64.6283 230.276 65.811 229.378C66.978 228.491 68.2587 227.3 69.0747 225.988L63.1304 222.291ZM60.08 224.821C59.5654 224.879 59.1554 225.031 58.8856 225.153C58.6093 225.278 58.3863 225.415 58.2298 225.52C57.9314 225.72 57.6822 225.936 57.5609 226.041C57.3733 226.204 57.3648 226.215 57.3006 226.268C57.235 226.322 57.3813 226.188 57.6551 226.05L60.7982 232.305C61.051 232.178 61.2549 232.044 61.3959 231.944C61.5412 231.841 61.6656 231.742 61.7586 231.665C61.8524 231.588 61.9376 231.513 61.9996 231.459C62.0778 231.391 62.103 231.368 62.153 231.324C62.1926 231.29 62.209 231.276 62.2124 231.274C62.2171 231.27 62.1867 231.295 62.1295 231.333C62.0765 231.369 61.9542 231.447 61.7746 231.529C61.6015 231.607 61.2841 231.73 60.8569 231.778L60.08 224.821ZM57.6551 226.05C57.6678 226.044 57.6435 226.057 57.4929 226.118C57.3836 226.162 57.1471 226.255 56.9226 226.355C56.5172 226.536 55.6232 226.956 54.8964 227.808L60.2225 232.35C60.0375 232.567 59.8673 232.685 59.7981 232.729C59.7305 232.772 59.7062 232.779 59.7741 232.748C59.8045 232.735 59.845 232.718 59.904 232.693C59.9721 232.665 60.022 232.646 60.1171 232.607C60.1986 232.574 60.3027 232.532 60.4124 232.484C60.5225 232.437 60.6555 232.377 60.7982 232.305L57.6551 226.05ZM54.8964 227.808C54.6892 228.051 54.5153 228.179 54.2447 228.327C54.0746 228.42 53.8764 228.514 53.568 228.656C53.284 228.787 52.8924 228.964 52.4809 229.171L55.624 235.425C56.4264 235.022 58.5494 234.312 60.2225 232.35L54.8964 227.808ZM52.4809 229.171C52.0912 229.366 51.7017 229.592 51.4124 229.758C51.09 229.944 50.8443 230.084 50.6088 230.205C50.0737 230.478 50.0161 230.416 50.2236 230.416V237.416C51.7383 237.416 53.0262 236.83 53.7943 236.438C54.2103 236.225 54.6056 235.997 54.9036 235.826C55.2346 235.635 55.4448 235.515 55.624 235.425L52.4809 229.171ZM50.2236 230.416C49.2868 230.416 48.2302 230.73 47.5832 230.968C47.1971 231.11 46.7351 231.307 46.2934 231.564C46.0345 231.715 45.0595 232.278 44.5028 233.397L50.7701 236.515C50.6328 236.791 50.4812 236.994 50.3675 237.128C50.2521 237.264 50.1474 237.362 50.0751 237.424C49.9369 237.543 49.8367 237.601 49.8217 237.61C49.7927 237.627 49.848 237.594 50.0021 237.537C50.1425 237.485 50.288 237.443 50.3981 237.417C50.4518 237.404 50.4756 237.4 50.4696 237.401C50.4656 237.402 50.4451 237.405 50.4102 237.408C50.3774 237.411 50.3127 237.416 50.2236 237.416V230.416ZM43.6488 229.85C43.3922 230.079 43.1894 230.311 43.0533 230.475C42.9105 230.647 42.7814 230.819 42.6798 230.956C42.5837 231.087 42.4702 231.245 42.3964 231.346C42.3105 231.465 42.2411 231.559 42.178 231.64C42.0312 231.83 42.0075 231.834 42.0832 231.77C42.1306 231.73 42.2616 231.625 42.4753 231.519C42.695 231.41 43.0442 231.281 43.4974 231.254L43.9106 238.242C45.2229 238.164 46.1467 237.501 46.6011 237.117C47.0924 236.701 47.4727 236.236 47.7126 235.926C47.9334 235.641 48.2201 235.238 48.3142 235.11C48.5034 234.854 48.4704 234.929 48.3125 235.07L43.6488 229.85ZM43.4974 231.254C43.4081 231.259 43.2785 231.267 43.1652 231.279C43.136 231.282 43.0627 231.289 42.9727 231.303C42.9314 231.309 42.8375 231.324 42.7202 231.35C42.6616 231.364 42.56 231.388 42.4361 231.427C42.3441 231.456 42.0781 231.543 41.7682 231.718C41.6123 231.806 41.3283 231.981 41.0322 232.273C40.7467 232.554 40.2604 233.132 40.0675 234.03C39.5839 236.28 41.2833 237.505 41.5749 237.696C42.0232 237.988 42.4309 238.103 42.5293 238.131C42.6912 238.178 42.8229 238.202 42.8917 238.214C43.1207 238.254 43.3105 238.262 43.3187 238.262C43.5169 238.273 43.8131 238.266 43.8973 238.265C44.0672 238.262 44.2713 238.257 44.4349 238.254C44.5193 238.252 44.5929 238.25 44.652 238.249C44.7194 238.248 44.7423 238.248 44.7388 238.248V231.248C44.5737 231.248 44.0209 231.261 43.7734 231.266C43.5336 231.27 43.5703 231.266 43.6868 231.272C43.7105 231.273 43.7521 231.276 43.8044 231.28C43.8444 231.284 43.9534 231.294 44.0918 231.318C44.1595 231.33 44.2903 231.355 44.4514 231.401C44.5491 231.428 44.9563 231.543 45.4042 231.836C45.6955 232.026 47.3947 233.251 46.9112 235.501C46.7184 236.398 46.2322 236.976 45.9467 237.258C45.6508 237.549 45.367 237.724 45.2113 237.812C44.9018 237.987 44.6364 238.073 44.5454 238.102C44.4223 238.141 44.3218 238.165 44.2644 238.178C44.1497 238.204 44.0591 238.218 44.022 238.224C43.9405 238.236 43.8791 238.242 43.8656 238.244C43.8146 238.249 43.806 238.248 43.9106 238.242L43.4974 231.254ZM44.7388 238.248H46.6016V231.248H44.7388V238.248ZM46.6016 238.248C48.4158 238.248 50.2555 237.674 51.7383 236.482L47.352 231.026C47.2234 231.13 46.9687 231.248 46.6016 231.248V238.248ZM51.7383 236.482C51.2162 236.901 50.7085 237.022 50.5219 237.057C50.4249 237.076 50.3623 237.081 50.3699 237.08C50.395 237.078 50.3927 237.078 50.5066 237.07C50.6463 237.06 51.0706 237.031 51.5451 236.904C52.0675 236.764 52.7278 236.489 53.3418 235.934L48.646 230.742C49.0486 230.378 49.4678 230.214 49.7359 230.142C49.956 230.083 50.1129 230.08 49.9889 230.089C49.9709 230.09 49.8376 230.099 49.7347 230.109C49.6144 230.12 49.4267 230.14 49.2099 230.181C48.7834 230.263 48.0563 230.46 47.352 231.026L51.7383 236.482ZM53.3418 235.934C53.2317 236.033 53.1763 236.047 53.3854 235.93C53.4315 235.905 53.4794 235.878 53.5443 235.843C53.6045 235.81 53.6805 235.768 53.7588 235.724C53.9135 235.637 54.1225 235.516 54.3449 235.367L50.4485 229.552C50.45 229.551 50.4425 229.556 50.4221 229.568C50.4015 229.581 50.3729 229.597 50.3314 229.621C50.2885 229.645 50.2421 229.67 50.1796 229.705C50.1219 229.736 50.0468 229.777 49.9706 229.82C49.6907 229.976 49.1578 230.279 48.646 230.742L53.3418 235.934ZM120.19 210.397V214.753H127.19V210.397H120.19ZM99.931 245.692H67.944V252.692H99.931V245.692Z" fill="#030303"/>
</svg>
