<svg viewBox="0 0 343 557" fill="none" xmlns="http://www.w3.org/2000/svg">
<path d="M261.966 204.955C286.376 210.148 305.985 222.334 320.791 241.511C335.597 260.288 343 281.862 343 306.233C343 341.391 330.595 369.358 305.784 390.133C281.374 410.508 247.16 420.696 203.142 420.696H41.3538C18.5147 420.696 0 402.181 0 379.342C0 357.36 17.198 339.219 39.149 338.047L97.5171 334.931C119.443 333.76 139.575 347.381 159.137 357.352C169.704 362.737 182.339 365.793 196.18 365.793C226.317 365.793 253.14 352.543 266.118 333.702H196.18C192.367 333.702 189.278 330.624 189.278 326.826C189.278 323.027 192.367 319.949 196.18 319.949H269.8C270.753 319.935 271.698 320.137 272.561 320.545C275.013 312.692 275.013 304.284 272.561 296.431C271.698 296.839 270.753 297.041 269.8 297.027H196.18C192.367 297.027 189.278 293.949 189.278 290.15C189.278 286.352 192.367 283.274 196.18 283.274H266.119C253.143 264.432 226.318 251.182 196.18 251.182C182.339 251.182 169.704 254.238 159.138 259.623C139.575 269.594 119.443 283.215 97.5159 282.044L69.1813 280.531C30.391 278.46 0 246.403 0 207.558C0 168.759 30.3207 136.723 69.0611 134.591L97.3549 133.034C119.364 131.822 139.57 145.521 159.193 155.56C169.748 160.96 182.363 164.023 196.179 164.023C238.554 164.023 274.398 137.645 274.4 106.375C274.398 75.1082 238.554 48.7266 196.179 48.7266C182.363 48.7266 169.749 51.7896 159.194 57.1891C139.57 67.2284 119.364 80.9279 97.3537 79.7165L36.1018 76.345C15.8502 75.2303 0 58.4836 0 38.2014C0 17.1033 17.1034 0 38.2014 0H196.539C239.357 0 272.771 9.78827 296.781 29.3648C321.191 48.9414 333.396 75.5096 333.396 109.069C333.396 133.84 326.793 154.415 313.588 170.795C300.782 187.176 283.575 198.562 261.966 204.955Z" fill="black"/>
<path d="M26.4925 500.78C28.3117 497.824 30.9269 495.436 34.3379 493.617C37.749 491.798 41.6527 490.888 46.0492 490.888C51.2795 490.888 56.017 492.214 60.2619 494.867C64.5067 497.52 67.842 501.311 70.2676 506.238C72.7691 511.165 74.0198 516.888 74.0198 523.407C74.0198 529.926 72.7691 535.686 70.2676 540.689C67.842 545.616 64.5067 549.444 60.2619 552.173C56.017 554.826 51.2795 556.153 46.0492 556.153C41.5769 556.153 37.6732 555.281 34.3379 553.538C31.0027 551.718 28.3875 549.331 26.4925 546.374V555.243H7.0495V471.104H26.4925V500.78ZM54.2357 523.407C54.2357 518.555 52.8713 514.765 50.1424 512.036C47.4894 509.232 44.192 507.829 40.2504 507.829C36.3845 507.829 33.0872 509.232 30.3583 512.036C27.7053 514.841 26.3788 518.669 26.3788 523.52C26.3788 528.372 27.7053 532.2 30.3583 535.004C33.0872 537.809 36.3845 539.211 40.2504 539.211C44.1162 539.211 47.4136 537.809 50.1424 535.004C52.8713 532.124 54.2357 528.258 54.2357 523.407Z" fill="black"/>
<path d="M88.3133 485.203C84.9023 485.203 82.0976 484.217 79.8994 482.247C77.777 480.2 76.7158 477.699 76.7158 474.742C76.7158 471.71 77.777 469.209 79.8994 467.238C82.0976 465.191 84.9023 464.168 88.3133 464.168C91.6486 464.168 94.3774 465.191 96.4998 467.238C98.6981 469.209 99.7972 471.71 99.7972 474.742C99.7972 477.699 98.6981 480.2 96.4998 482.247C94.3774 484.217 91.6486 485.203 88.3133 485.203ZM97.978 491.798V555.243H78.535V491.798H97.978Z" fill="black"/>
<path d="M145.042 491.115C152.47 491.115 158.383 493.541 162.779 498.392C167.251 503.168 169.487 509.762 169.487 518.176V555.243H150.158V520.791C150.158 516.547 149.059 513.249 146.861 510.899C144.663 508.55 141.706 507.375 137.992 507.375C134.278 507.375 131.322 508.55 129.123 510.899C126.925 513.249 125.826 516.547 125.826 520.791V555.243H106.383V491.798H125.826V500.211C127.797 497.407 130.45 495.209 133.785 493.617C137.12 491.949 140.873 491.115 145.042 491.115Z" fill="black"/>
<path d="M173.447 523.52C173.447 516.926 174.774 511.165 177.427 506.238C180.156 501.311 183.908 497.52 188.683 494.867C193.535 492.214 199.068 490.888 205.284 490.888C213.243 490.888 219.876 492.972 225.182 497.142C230.564 501.311 234.088 507.185 235.756 514.765H215.062C213.319 509.914 209.946 507.488 204.943 507.488C201.38 507.488 198.538 508.891 196.415 511.695C194.293 514.424 193.232 518.366 193.232 523.52C193.232 528.675 194.293 532.654 196.415 535.459C198.538 538.188 201.38 539.552 204.943 539.552C209.946 539.552 213.319 537.127 215.062 532.275H235.756C234.088 539.704 230.564 545.541 225.182 549.785C219.8 554.03 213.167 556.153 205.284 556.153C199.068 556.153 193.535 554.826 188.683 552.173C183.908 549.52 180.156 545.73 177.427 540.803C174.774 535.876 173.447 530.115 173.447 523.52Z" fill="black"/>
<path d="M279.471 491.115C286.748 491.115 292.584 493.541 296.981 498.392C301.377 503.168 303.575 509.762 303.575 518.176V555.243H284.246V520.791C284.246 516.547 283.147 513.249 280.949 510.899C278.751 508.55 275.794 507.375 272.08 507.375C268.366 507.375 265.41 508.55 263.211 510.899C261.013 513.249 259.914 516.547 259.914 520.791V555.243H240.471V471.104H259.914V500.325C261.885 497.521 264.576 495.284 267.987 493.617C271.398 491.949 275.226 491.115 279.471 491.115Z" fill="black"/>
<path d="M321.18 485.203C317.769 485.203 314.964 484.217 312.766 482.247C310.643 480.2 309.582 477.699 309.582 474.742C309.582 471.71 310.643 469.209 312.766 467.238C314.964 465.191 317.769 464.168 321.18 464.168C324.515 464.168 327.244 465.191 329.366 467.238C331.564 469.209 332.664 471.71 332.664 474.742C332.664 477.699 331.564 480.2 329.366 482.247C327.244 484.217 324.515 485.203 321.18 485.203ZM330.844 491.798V555.243H311.401V491.798H330.844Z" fill="black"/>
</svg>
